<?xml version="1.0" encoding="UTF-8"?>
<!DOCTYPE svg PUBLIC "-//W3C//DTD SVG 1.1//EN" "http://www.w3.org/Graphics/SVG/1.1/DTD/svg11.dtd">
<!-- Creator: CorelDRAW X7 -->
<svg xmlns="http://www.w3.org/2000/svg" xml:space="preserve" width="5.1562mm" height="3.1251mm" version="1.1" style="shape-rendering:geometricPrecision; text-rendering:geometricPrecision; image-rendering:optimizeQuality; fill-rule:evenodd; clip-rule:evenodd"
viewBox="0 0 223 135"
 xmlns:xlink="http://www.w3.org/1999/xlink">
 <defs>
  <style type="text/css">
   <![CDATA[
    .str0 {stroke:#ED2F59;stroke-width:3.29086}
    .fil2 {fill:none}
    .fil3 {fill:#FEFEFE}
    .fil0 {fill:#ED2F59}
    .fil6 {fill:#57B952}
    .fil1 {fill:#201E1E}
    .fil5 {fill:#57B952;fill-rule:nonzero}
    .fil4 {fill:#201E1E;fill-rule:nonzero}
   ]]>
  </style>
 </defs>
 <g id="Layer_x0020_1">
  <metadata id="CorelCorpID_0Corel-Layer"/>
  <g id="_411335696">
   <g>
    <path class="fil0" d="M217 45l-125 0 0 1 -1 -1 -3 0c-1,1 -1,1 -1,1 -1,0 -1,0 -2,0l-1 1 0 0 0 2 -1 1c-1,0 -2,0 -3,0 -1,0 -1,0 -2,0l-1 -1 0 -2 0 0 -2 0c0,-1 -1,-1 -1,-1 -1,0 -1,0 -2,-1l-2 0 -1 1 -1 -1 0 0 -4 0c0,1 0,2 0,2 0,1 0,2 0,3l0 1 -3 0c0,0 0,1 0,1l6 2 0 2c-1,1 -1,2 -1,3 -1,1 -1,2 -2,3l0 1 -7 -2c0,0 0,0 0,0l2 2 -1 1c-1,1 -1,1 -2,2 -1,1 -1,1 -2,2l-1 1 -2 -2c0,0 0,0 0,0l2 6 0 0 130 0 -9 -20c-1,0 0,-2 1,-2l3 -1c1,-1 2,0 2,1l10 21c0,0 0,1 0,1l27 0 0 -28zm-170 0l-20 0c0,1 0,1 0,2 0,5 5,10 10,10 6,0 10,-5 10,-10 0,-1 0,-1 0,-2zm-36 0l-2 0 0 8 4 -1c0,0 0,-1 0,-1l-2 0 0 -1c0,-1 -1,-2 -1,-3 0,0 1,-1 1,-2zm-2 14l0 14 12 0 0 0 3 -6c0,0 -1,0 -1,0l-1 2 -1 -1c-1,-1 -2,-1 -3,-2 0,-1 -1,-2 -2,-2l0 -1 1 -2c0,0 0,0 0,-1l-6 3 -1 -1c0,-1 -1,-2 -1,-3zm22 14l2 0 0 -2c0,0 0,0 -1,0l-1 2zm11 0l1 0 -1 -2c0,0 0,0 0,0l0 2z"/>
    <g>
     <path class="fil1" d="M55 33l2 -2c-1,0 -1,-1 -2,-2 -1,0 -1,-1 -2,-2l-2 2c0,-1 -1,-1 -2,-2l2 -6c0,0 -1,-1 -2,-1 -1,0 -3,-1 -4,-1l-2 6c-1,0 -2,-1 -3,-1l0 -2c-1,0 -2,0 -3,0 -1,0 -2,0 -3,0l0 2c-1,0 -1,1 -2,1l-3 -6c-1,0 -2,0 -3,1 -1,0 -2,1 -3,1l3 6c-1,1 -2,1 -3,2l-2 -2c0,1 -1,1 -2,2 0,1 -1,2 -2,2l2 2c0,1 -1,1 -1,2l-6 -2c-1,1 -1,2 -2,3 0,1 -1,2 -1,3l6 2c0,1 0,2 0,3l-3 0c0,1 0,2 0,3 0,1 0,2 0,3l3 0c0,1 0,2 0,3l-6 2c0,1 1,2 1,3 1,1 1,2 1,3l7 -2c0,0 1,1 1,2l-2 2c1,1 2,1 2,2 1,1 2,1 2,2l2 -2c1,1 2,1 2,2l-2 6c1,0 2,1 3,1 1,1 2,1 3,1l3 -6c0,0 1,1 2,1l0 2c1,0 2,0 3,0 1,0 2,0 3,0l0 -2c1,0 2,-1 3,-1l2 6c1,0 2,0 3,-1 1,0 2,-1 3,-1l-2 -6c1,-1 1,-1 2,-2l2 2c1,-1 1,-1 2,-2 1,-1 1,-1 2,-2l-2 -2c1,-1 1,-1 2,-2l6 2c0,-1 1,-2 1,-3 1,-1 1,-2 1,-3l-6 -2c1,-1 1,-2 1,-3l2 0c0,-1 1,-2 1,-3 0,-1 -1,-2 -1,-3l-2 0c0,-1 0,-2 -1,-3l6 -2c0,-1 0,-2 -1,-3 0,-1 -1,-2 -1,-3l-6 2c-1,0 -1,-1 -2,-2zm-18 3c6,0 12,5 12,11 0,6 -6,11 -12,11 -6,0 -11,-5 -11,-11 0,-6 5,-11 11,-11z"/>
     <path class="fil1" d="M94 26l1 -1c0,-1 0,-1 0,-2 0,0 -1,-1 -1,-1l-1 0c-1,0 -1,-1 -1,-1l2 -3c0,-1 0,-1 -1,-2 0,0 -1,-1 -2,-1l-2 3c-1,0 -1,-1 -2,-1l1 -1c-1,-1 -2,-1 -2,-1 -1,0 -1,-1 -2,-1l0 2c-1,0 -1,-1 -2,-1l0 -4c-1,0 -1,0 -2,0 -1,0 -2,0 -2,0l0 4c-1,0 -1,1 -2,1l-1 -2c0,1 -1,1 -1,1 -1,0 -1,0 -2,1l1 1c-1,0 -1,1 -2,1l-3 -3c0,1 -1,1 -1,2 -1,0 -1,1 -2,1l3 3c0,1 0,1 -1,2l-1 -1c0,1 -1,1 -1,2 0,0 0,1 0,1l1 1c0,1 0,1 0,2l-4 0c-1,0 -1,1 -1,2 0,1 0,1 1,2l4 0c0,1 0,1 0,2l-1 0c0,1 0,1 0,2 1,1 1,1 1,2l2 -1c0,1 0,1 1,1l-3 3c0,1 1,1 1,2 1,0 1,1 2,1l3 -3c0,1 1,1 1,1l-1 2c1,0 2,0 2,1 1,0 1,0 2,0l0 -1c1,0 2,0 2,0l0 4c1,0 1,0 2,0 1,0 2,0 2,0l0 -4c1,0 1,0 2,0l1 1c0,0 1,0 1,-1 1,0 1,0 2,0l-1 -2c1,0 1,0 2,-1l3 3c0,0 1,-1 1,-1 1,-1 1,-1 2,-2l-3 -3c0,0 0,-1 1,-1l1 0c0,0 1,-1 1,-1 0,-1 0,-2 0,-2l-1 -1c0,0 0,-1 0,-1l5 0c0,-1 0,-2 0,-2 0,-1 0,-2 -1,-3l-4 0c0,0 0,-1 0,-1zm-11 -3c3,1 5,6 4,9 -2,4 -6,6 -10,4 -3,-1 -5,-5 -4,-9 2,-4 6,-5 10,-4z"/>
    </g>
   </g>
   <rect class="fil2 str0" x="2" y="2" width="219" height="132" rx="16" ry="14"/>
   <path class="fil3" d="M111 65l-2 0 0 -2c-1,2 -2,3 -3,3 -2,0 -3,-1 -4,-2 0,-1 -1,-3 -1,-4 0,-2 1,-3 1,-5 1,-1 2,-1 4,-1 1,0 2,0 3,2l0 -6 2 0 0 15zm-35 1c1,0 1,0 1,0l19 -15c0,-1 0,-1 0,-1 0,-1 1,-2 2,-2 0,0 1,1 1,2 0,0 0,0 0,0l5 3c0,0 0,0 -1,0l-4 -2c-1,0 -1,0 -1,0 -1,0 -1,0 -1,0l-19 16c0,0 0,0 0,0 0,1 -1,2 -2,2 0,0 -1,-1 -1,-2 0,0 1,-1 1,-1zm36 -9l2 1 0 1 -2 -1 0 -1zm6 3l1 0c0,1 0,1 0,1l-1 0 0 -1zm5 2l1 1 0 0c0,0 -1,0 -1,0 0,0 0,0 0,-1zm7 4l4 2c0,0 0,0 1,0 0,0 0,0 1,0l6 -2 1 0 0 0 1 -1c0,1 0,1 0,1l-8 3c0,0 0,0 0,0 0,1 0,2 -1,2 -1,0 -2,-1 -2,-2 0,0 0,0 0,0l-4 -3 1 0zm24 -4l2 -1c0,1 0,1 0,1l-1 1c-1,-1 -1,-1 -1,-1zm6 -2l4 -1c0,0 0,0 0,1l0 0 -4 1c0,0 0,-1 0,-1zm8 -2l1 -1c0,0 0,0 0,0 0,-1 0,-1 1,-1 1,0 2,0 2,1l0 0 36 12c0,-1 0,-1 1,-1 1,0 1,1 1,2 0,1 0,1 -1,1 -1,0 -2,0 -2,-1 0,0 0,0 0,0l-36 -12c0,0 0,1 -1,1 0,0 -1,0 -1,-1l-1 0c0,0 0,0 0,0zm-41 7l0 0 0 0 0 0zm35 1c-2,0 -3,-1 -4,-2 -1,-1 -1,-3 -1,-4 0,-2 0,-3 1,-5 1,-1 2,-1 4,-1 2,0 3,0 4,1 1,2 1,3 1,5 0,1 0,3 -1,4 -1,1 -3,2 -4,2zm0 -2c2,0 3,-2 3,-4 0,-1 -1,-2 -1,-3 0,-1 -1,-1 -2,-1 -1,0 -2,0 -2,1 0,1 -1,2 -1,3 0,1 1,2 1,3 1,0 1,1 2,1zm-6 -12l0 2 -1 0c0,0 -1,0 -1,0 0,0 0,0 -1,1 1,0 2,1 2,2 0,1 -1,2 -2,3 0,0 -2,1 -3,1 -1,0 -1,0 -2,-1 -1,1 -1,1 -1,2 0,0 0,0 1,0 0,1 0,1 1,1l3 0c1,0 2,0 3,1 0,0 1,1 1,2 0,1 -1,2 -2,2 -1,1 -2,2 -4,2 -4,0 -6,-1 -6,-4 0,-1 1,-1 2,-2 -1,0 -1,-1 -1,-2 0,-1 1,-2 2,-2 -1,-1 -2,-2 -2,-3 0,-1 1,-2 1,-2 1,-1 2,-1 4,-1 1,0 1,0 2,0 0,-1 1,-2 3,-2l1 0zm-6 7c1,0 2,0 2,-2 0,0 0,-1 0,-1 -1,0 -1,-1 -2,-1 -1,0 -1,1 -2,1 0,0 0,1 0,1 0,1 0,1 0,2 1,0 1,0 2,0zm-3 6c0,0 0,0 0,1 0,0 0,1 0,1 1,1 2,1 3,1 2,0 3,-1 3,-2 0,0 0,0 0,-1 0,0 -1,0 -1,0l-3 0c-1,0 -1,0 -2,0zm-5 0l-2 0 0 -7c0,0 0,-1 -1,-1 0,-1 -1,-1 -1,-1 -1,0 -1,0 -2,1 0,0 -1,1 -1,3l0 5 -2 0 0 -11 2 0 0 3c1,-2 2,-3 4,-3 1,0 1,0 2,1 1,0 1,1 1,3l0 7zm-12 0l-2 0c-1,0 -1,-1 -1,-2 -1,2 -2,3 -4,3 -1,0 -2,-1 -2,-1 -1,-1 -1,-2 -1,-3 0,-2 2,-4 6,-4 1,0 1,0 1,0l0 -1c0,-1 -1,-1 -2,-1 -2,0 -3,0 -3,1l-2 0c0,-1 0,-2 1,-2 1,-1 2,-1 4,-1 1,0 2,0 2,0 1,0 1,0 2,1 0,0 0,0 0,1 1,0 1,1 1,2l0 5c0,1 0,2 0,2zm-3 -5c-3,0 -5,0 -5,2 0,0 0,1 1,1 0,1 1,1 1,1 1,0 2,-1 2,-1 1,-1 1,-2 1,-2l0 -1zm-10 -7l-2 0 0 -3 2 0 0 3zm0 1l0 11c0,3 -1,5 -4,5 0,0 -1,0 -1,-1l0 -2c0,0 0,0 1,0 0,0 1,0 1,0 0,0 1,-1 1,-2l0 -11 2 0zm-8 5c0,-1 0,-2 -1,-2 0,-1 -1,-1 -1,-1 -1,0 -2,0 -2,1 -1,0 -1,1 -1,3 0,2 1,4 2,4 1,0 2,-1 2,-1 1,-1 1,-2 1,-2l0 -2z"/>
   <g>
    <path class="fil4" d="M43 100l11 0 -4 -8c0,-1 -1,-1 -1,-2 0,-1 0,-2 -1,-3 0,1 0,2 0,3 0,1 -1,1 -1,2l-4 8zm17 15l-4 -10 -15 0 -4 10 -7 0 18 -39 19 39 -7 0z"/>
    <path class="fil4" d="M65 108l4 -3c1,2 2,3 3,4 1,1 3,2 5,2 2,0 3,-1 4,-2 1,-1 2,-2 2,-4 0,-2 -2,-4 -6,-6 0,0 -1,0 -1,-1 -4,-2 -7,-3 -8,-5 -2,-2 -2,-4 -2,-6 0,-3 1,-6 3,-8 2,-1 5,-2 8,-2 3,0 5,0 7,1 2,1 3,3 4,5l-5 2c-1,-1 -2,-2 -2,-2 -1,-1 -2,-1 -4,-1 -1,0 -2,0 -3,1 -1,1 -2,2 -2,4 0,2 2,4 6,6 1,0 1,0 1,0 4,2 7,4 8,5 1,2 2,4 2,6 0,4 -1,7 -3,9 -3,2 -6,3 -9,3 -4,0 -6,-1 -8,-2 -2,-2 -4,-4 -4,-6z"/>
    <path class="fil4" d="M98 115l0 -17 -12 -21 6 0 8 13c0,1 0,1 1,2 0,0 0,1 0,1 1,0 1,-1 1,-1 1,-1 1,-1 1,-2l8 -13 6 0 -13 21 0 17 -6 0z"/>
    <polygon class="fil4" points="9,115 9,77 30,77 30,83 15,83 15,92 30,92 30,98 15,98 15,110 30,110 30,115 "/>
    <path class="fil5" d="M123 103c1,2 3,3 4,4 2,1 3,1 5,1 1,0 2,0 3,-1 1,-1 1,-2 1,-3 0,-1 0,-2 -1,-3 0,0 -2,-1 -5,-2 -4,-1 -6,-2 -8,-4 -1,-1 -2,-3 -2,-6 0,-4 1,-7 4,-9 2,-2 5,-3 9,-3 2,0 4,0 6,0 2,1 4,2 5,3l-3 7c-1,-1 -2,-1 -4,-2 -1,0 -2,-1 -3,-1 -2,0 -3,1 -3,1 -1,1 -1,2 -1,2 0,1 0,2 1,3 0,0 2,1 3,1l1 1c4,1 7,2 8,3 1,1 2,2 2,4 1,1 1,2 1,4 0,4 -1,7 -4,10 -3,2 -6,3 -10,3 -3,0 -6,0 -8,-1 -2,-1 -4,-2 -6,-4l5 -8z"/>
    <polygon class="fil5" points="150,115 150,77 173,77 173,86 160,86 160,92 172,92 172,100 160,100 160,107 173,107 173,115 "/>
    <path class="fil6" d="M187 96c0,-5 4,-9 9,-9 5,0 9,4 9,9 0,5 -4,10 -9,10 -5,0 -9,-5 -9,-10zm0 -17l-2 -4c0,1 -1,0 -1,0l-10 -22c0,0 0,-1 1,-2l3 -1c1,0 2,0 2,1l9 21c0,1 0,2 0,2l1 4c2,0 4,-1 6,-1 11,0 19,9 19,19 0,11 -8,20 -19,20 -10,0 -19,-9 -19,-20 0,-7 4,-13 10,-17z"/>
   </g>
  </g>
 </g>
</svg>
