<?xml version="1.0" encoding="UTF-8"?>
<!DOCTYPE svg PUBLIC "-//W3C//DTD SVG 1.1//EN" "http://www.w3.org/Graphics/SVG/1.1/DTD/svg11.dtd">
<!-- Creator: CorelDRAW X7 -->
<svg xmlns="http://www.w3.org/2000/svg" xml:space="preserve" width="8.2042mm" height="4.9545mm" version="1.1" style="shape-rendering:geometricPrecision; text-rendering:geometricPrecision; image-rendering:optimizeQuality; fill-rule:evenodd; clip-rule:evenodd"
viewBox="0 0 449 271"
 xmlns:xlink="http://www.w3.org/1999/xlink">
 <defs>
  <style type="text/css">
   <![CDATA[
    .str0 {stroke:#201E1E;stroke-width:4.17129}
    .fil0 {fill:#FEFEFE}
    .fil1 {fill:#201E1E}
    .fil2 {fill:#201E1E;fill-rule:nonzero}
   ]]>
  </style>
 </defs>
 <g id="Layer_x0020_1">
  <metadata id="CorelCorpID_0Corel-Layer"/>
  <g id="_667047408">
   <rect class="fil0 str0" x="2" y="2" width="445" height="267" rx="33" ry="28"/>
   <g>
    <path class="fil1" d="M439 91l-253 0 -1 1 -1 -1 -8 0c0,0 -1,0 -1,1 -1,0 -2,0 -4,1l-2 1 0 -1 0 6 -3 0c-1,0 -3,1 -5,1 -1,0 -3,0 -4,-1l-3 0 0 -5 0 0 -2 -1c-2,0 -3,-1 -4,-1 -1,0 -2,-1 -2,-1l-6 0 -2 2 -2 -2 0 0 -8 0c0,1 0,2 0,3 0,2 0,4 0,6l0 3 -5 0c0,0 0,1 0,1l12 5 -1 3c-1,2 -1,4 -2,6 -1,2 -2,4 -3,6l-1 3 -13 -5c0,0 0,0 0,0l3 4 -1 2c-2,2 -3,3 -5,5 -1,1 -2,2 -4,4l-2 1 -4 -3c0,0 0,0 -1,0l6 13 0 0 262 0 -18 -41c0,-2 0,-4 2,-5l6 -2c2,-1 5,0 5,2l19 43c1,1 1,2 0,3l56 0 0 -57zm-345 0l-40 0c0,1 0,2 0,3 0,11 9,20 20,20 11,0 20,-9 20,-20 0,-1 0,-2 0,-3zm-74 0l-3 0 0 16 9 -3c0,-1 0,-1 0,-1l-5 0 -1 -3c0,-2 0,-4 0,-6 0,-1 0,-2 0,-3zm-3 28l0 29 25 0 0 -1 5 -12c0,0 -1,0 -1,0l-4 3 -2 -1c-1,-2 -3,-3 -4,-4 -1,-2 -3,-3 -4,-5l-2 -2 4 -4c0,0 -1,0 -1,-1l-12 5 -2 -2c0,-2 -1,-3 -2,-5zm45 29l4 0 0 -5c-1,0 -1,-1 -2,-1l-2 6zm21 0l3 0 -2 -6c-1,1 -1,1 -1,1l0 5z"/>
    <g>
     <path class="fil1" d="M111 66l3 -4c-1,-1 -2,-3 -3,-4 -2,-1 -3,-3 -5,-4l-3 4c-2,-2 -3,-3 -5,-4l5 -12c-2,-1 -4,-2 -6,-3 -2,-1 -4,-1 -6,-2l-5 12c-2,0 -4,-1 -6,-1l0 -5c-2,0 -4,0 -6,0 -2,0 -4,0 -5,0l0 5c-2,0 -4,1 -6,1l-5 -12c-2,1 -4,1 -6,2 -2,1 -4,2 -6,3l5 12c-2,1 -4,2 -5,4l-4 -4c-1,1 -3,3 -4,4 -1,1 -3,3 -4,4l4 4c-1,1 -3,3 -3,4l-13 -5c-1,2 -2,4 -3,6 -1,2 -1,4 -2,6l12 6c0,1 0,3 -1,5l-5 0c0,2 0,4 0,6 0,2 0,4 0,6l5 0c1,2 1,4 1,5l-12 5c1,3 1,5 2,7 1,2 2,4 3,6l12 -5c1,1 2,3 4,5l-4 3c1,2 3,3 4,4 1,2 3,3 4,4l4 -3c1,1 3,2 4,3l-5 12c2,1 4,2 6,3 2,1 5,2 7,2l5 -12c2,0 4,1 6,1l0 5c1,0 3,0 5,0 2,0 4,0 6,0l0 -5c2,0 4,-1 5,-1l6 12c2,0 4,-1 6,-2 2,-1 4,-2 6,-3l-5 -12c2,-1 3,-2 5,-3l3 3c2,-1 3,-2 4,-3 2,-2 3,-3 4,-5l-3 -3c1,-2 2,-3 3,-5l12 5c1,-2 2,-4 3,-6 1,-2 2,-4 2,-6l-12 -5c1,-2 1,-4 1,-6l5 0c0,-2 1,-4 1,-6 0,-2 -1,-4 -1,-6l-5 0c0,-2 0,-3 -1,-5l12 -5c0,-2 -1,-4 -2,-6 -1,-2 -2,-5 -3,-7l-12 6c-1,-2 -2,-4 -3,-5zm-37 5c13,0 23,10 23,23 0,13 -10,23 -23,23 -12,0 -23,-10 -23,-23 0,-13 11,-23 23,-23z"/>
     <path class="fil1" d="M189 51l3 -2c0,-1 -1,-2 -1,-3 -1,-1 -1,-2 -2,-3l-3 1c0,-1 -1,-2 -2,-3l6 -6c-1,-1 -2,-2 -3,-3 -1,-1 -2,-2 -3,-3l-6 6c-1,-1 -2,-1 -3,-2l1 -3c-1,0 -2,-1 -3,-1 -1,-1 -2,-1 -3,-1l-2 2c-1,0 -2,0 -3,0l0 -9c-2,0 -3,0 -4,0 -2,0 -3,0 -5,0l0 9c-1,0 -2,0 -3,1l-1 -3c-2,0 -3,1 -4,1 -1,1 -2,1 -3,2l1 3c-1,0 -2,1 -3,2l-6 -6c-1,1 -2,2 -3,3 -1,1 -2,2 -3,3l6 6c0,1 -1,2 -2,3l-3 -1c0,1 -1,2 -1,3 -1,1 -1,2 -1,3l3 2c-1,1 -1,2 -1,3l-8 0c-1,2 -1,3 -1,4 0,2 0,3 1,5l8 -1c0,2 1,3 1,4l-3 1c0,2 1,3 1,4 1,1 1,2 2,3l3 -1c0,1 1,2 2,3l-6 6c1,1 2,2 3,3 1,1 2,2 3,3l6 -6c1,0 2,1 3,2l-1 3c1,0 2,1 3,1 1,1 2,1 4,1l1 -3c1,1 2,1 3,1l0 8c2,1 3,1 4,1 2,0 3,-1 5,-1l0 -8c1,0 2,-1 3,-1l2 3c1,0 2,-1 3,-1 1,-1 2,-1 3,-2l-1 -3c1,0 2,-1 3,-2l6 6c1,-1 2,-2 3,-3 1,-1 2,-2 3,-3l-6 -6c1,-1 1,-2 2,-3l3 1c0,-1 1,-2 1,-3 1,-1 1,-2 1,-4l-3 -1c1,-1 1,-2 1,-3l9 0c0,-2 0,-3 0,-4 0,-2 0,-3 -1,-5l-8 0c0,-1 0,-2 -1,-3zm-23 -6c8,3 12,12 9,19 -3,8 -12,11 -19,8 -8,-3 -11,-11 -8,-18 2,-8 11,-12 18,-9z"/>
    </g>
   </g>
   <path class="fil0" d="M225 131l-5 0 0 -4c-1,3 -4,5 -7,5 -3,0 -5,-1 -6,-4 -2,-2 -3,-5 -3,-8 0,-4 1,-7 3,-9 1,-2 3,-4 6,-4 3,0 5,2 7,4l0 -11 5 0 0 31zm-71 1c0,0 1,1 2,1l38 -32c0,0 0,-1 0,-1 0,-2 1,-3 3,-3 1,0 3,1 3,3 0,0 0,1 0,1l10 5c0,1 -1,1 -1,1l-10 -5c-1,1 -1,1 -2,1 -1,0 -1,0 -2,0l-38 31c0,1 0,1 0,2 0,1 -2,3 -3,3 -2,0 -3,-2 -3,-3 0,-2 1,-4 3,-4zm72 -18l4 2 0 2 -4 -2 0 -2zm12 6l2 1c0,1 0,1 0,2l-2 -1 0 -2zm10 5l3 2 0 0c-1,0 -2,0 -2,-1 -1,0 -1,0 -1,-1zm15 8l8 4c0,-1 0,-1 1,-1 1,0 1,0 2,1l12 -4 3 0 0 -1 1 -1c0,1 0,2 0,2l-15 5c0,0 0,1 0,1 0,2 -1,3 -3,3 -2,0 -3,-1 -3,-3 0,0 0,-1 0,-1l-9 -5 3 0zm47 -8l5 -2c0,1 1,1 1,2l-3 1c-1,-1 -2,-1 -3,-1zm13 -4l8 -3c0,1 0,1 0,2l0 0 -7 2c-1,0 -1,-1 -1,-1zm16 -5l2 -1c0,0 0,0 0,0 0,-2 1,-3 3,-3 2,0 3,1 3,3l0 0 73 23c0,0 1,-1 2,-1 2,0 3,1 3,3 0,2 -1,3 -3,3 -1,0 -3,-1 -3,-3 0,0 0,0 0,0l-73 -24c0,1 -1,2 -2,2 -1,0 -2,-1 -3,-1l-2 0c0,0 0,-1 0,-1zm-83 15l0 0 0 0 0 0zm71 1c-3,0 -6,-1 -8,-4 -2,-2 -3,-5 -3,-8 0,-4 1,-6 3,-9 2,-2 5,-3 8,-3 3,0 6,1 8,3 2,2 3,5 3,9 0,3 -1,6 -3,9 -2,2 -5,3 -8,3zm0 -4c4,0 5,-3 5,-8 0,-3 0,-4 -1,-6 -1,-1 -2,-2 -4,-2 -1,0 -3,1 -4,2 -1,2 -1,4 -1,6 0,2 0,4 1,6 1,1 3,2 4,2zm-12 -24l0 4 -2 0c-1,0 -1,0 -2,0 0,0 -1,1 -1,2 2,1 2,3 2,5 0,2 0,4 -2,5 -2,1 -4,2 -7,2 -1,0 -3,0 -4,-1 -1,1 -2,2 -2,3 0,0 0,1 1,1 0,1 1,1 2,1l7 0c3,0 4,0 6,2 1,1 2,2 2,4 0,2 -1,4 -3,6 -2,1 -5,2 -9,2 -8,0 -12,-2 -12,-6 0,-3 2,-4 4,-5 -2,-1 -2,-3 -2,-4 0,-2 1,-4 3,-5 -2,-1 -3,-3 -3,-5 0,-2 1,-4 2,-5 2,-2 4,-2 8,-2 1,0 3,0 4,0 1,-3 3,-4 6,-4l2 0zm-12 15c3,0 4,-2 4,-4 0,-1 0,-2 -1,-3 -1,-1 -2,-1 -3,-1 -1,0 -3,0 -3,1 -1,1 -1,2 -1,3 0,1 0,2 1,3 0,0 1,1 3,1zm-6 11c-1,1 -1,2 -1,2 0,1 1,2 2,3 1,1 3,1 6,1 4,0 6,-1 6,-3 0,-1 0,-1 -1,-2 -1,0 -2,0 -3,0l-5 0c-1,0 -2,0 -4,-1zm-10 1l-5 0 0 -14c0,-2 0,-3 -1,-3 -1,-1 -2,-2 -3,-2 -1,0 -2,1 -3,2 -1,1 -2,3 -2,6l0 11 -5 0 0 -23 5 0 0 6c2,-4 4,-6 7,-6 2,0 4,0 5,2 2,1 2,3 2,7l0 14zm-25 0l-5 0c0,-1 0,-2 0,-4 -2,3 -4,5 -8,5 -3,0 -4,-1 -6,-2 -1,-1 -2,-3 -2,-5 0,-6 5,-8 14,-8 1,0 1,0 2,0l0 -2c0,-2 -2,-4 -5,-4 -3,0 -5,2 -6,4l-4 -1c0,-2 1,-3 3,-4 2,-2 4,-2 7,-2 2,0 4,0 5,0 1,1 2,1 3,2 0,0 1,1 1,2 1,1 1,2 1,4l0 11c0,1 0,3 0,4zm-5 -11c-7,0 -10,1 -10,5 0,0 0,1 1,2 0,1 1,1 3,1 2,0 3,-1 4,-2 1,-1 2,-3 2,-4l0 -2zm-21 -14l-5 0 0 -6 5 0 0 6zm0 2l0 23c0,6 -2,9 -8,9 0,0 -1,0 -2,0l0 -5c0,0 1,0 1,0 2,0 3,0 3,-1 1,0 1,-1 1,-3l0 -23 5 0zm-16 10c0,-2 -1,-4 -2,-5 -1,-1 -2,-1 -3,-1 -2,0 -3,0 -4,2 -1,1 -1,3 -1,6 0,5 1,8 5,8 1,0 2,-1 3,-2 1,-1 2,-3 2,-4l0 -4z"/>
   <g>
    <path class="fil2" d="M87 202l21 0 -8 -17c0,-1 -1,-3 -1,-4 -1,-1 -1,-3 -2,-5 0,2 -1,3 -1,5 -1,1 -1,3 -2,4l-7 17zm34 30l-9 -19 -30 0 -9 19 -13 0 37 -79 37 79 -13 0z"/>
    <path class="fil2" d="M130 217l10 -5c1,4 2,6 5,8 2,2 6,3 9,3 4,0 7,-1 9,-3 2,-2 4,-5 4,-8 0,-5 -4,-9 -12,-12 -1,-1 -2,-1 -2,-2 -8,-4 -14,-7 -17,-11 -3,-3 -4,-7 -4,-12 0,-6 2,-11 6,-15 4,-4 10,-6 17,-6 6,0 10,1 14,3 4,3 6,6 8,10l-10 5c-1,-3 -3,-4 -5,-5 -2,-2 -4,-2 -6,-2 -3,0 -6,1 -8,2 -2,2 -3,5 -3,7 0,5 4,9 13,13 1,1 1,1 1,1 8,4 13,7 16,10 3,4 4,8 4,13 0,7 -2,13 -7,17 -4,4 -10,6 -18,6 -7,0 -12,-1 -16,-4 -4,-3 -7,-7 -8,-13z"/>
    <path class="fil2" d="M198 232l0 -35 -26 -41 13 0 16 26c1,0 1,1 2,2 0,1 1,3 2,4 0,-1 1,-2 1,-4 1,-1 1,-2 2,-2l16 -26 13 0 -27 41 0 35 -12 0z"/>
    <polygon class="fil2" points="16,232 16,156 59,156 59,166 29,166 29,186 59,186 59,196 29,196 29,221 59,221 59,232 "/>
    <path class="fil2" d="M248 208c3,3 6,6 9,7 3,2 6,3 9,3 3,0 5,-1 7,-2 2,-2 2,-4 2,-6 0,-2 0,-4 -2,-6 -1,-1 -5,-3 -10,-4 -8,-2 -13,-5 -16,-8 -3,-3 -5,-8 -5,-13 0,-7 3,-13 7,-18 5,-5 12,-7 19,-7 5,0 9,1 12,2 4,1 8,3 11,5l-6 15c-3,-2 -5,-4 -8,-5 -2,-1 -5,-1 -7,-1 -3,0 -5,0 -6,2 -2,1 -2,2 -2,4 0,2 0,4 2,5 1,1 4,2 8,3l0 0c9,3 15,5 17,8 2,2 3,4 4,7 1,2 2,5 2,8 0,8 -3,15 -8,20 -6,5 -13,7 -22,7 -5,0 -10,-1 -14,-2 -4,-2 -9,-5 -13,-9l10 -15z"/>
    <polygon class="fil2" points="303,232 303,156 350,156 350,173 323,173 323,186 348,186 348,202 323,202 323,215 350,215 350,232 "/>
    <path class="fil1" d="M378 194c0,-10 8,-19 18,-19 11,0 19,9 19,19 0,11 -8,19 -19,19 -10,0 -18,-8 -18,-19zm0 -34l-3 -8c-2,0 -3,-1 -4,-2l-19 -43c0,-2 0,-3 2,-4l6 -3c1,0 3,0 3,2l19 43c1,1 0,3 -1,4l4 8c3,-1 7,-2 11,-2 22,0 39,18 39,39 0,22 -17,39 -39,39 -21,0 -38,-17 -38,-39 0,-15 8,-28 20,-34z"/>
   </g>
  </g>
 </g>
</svg>
