<?xml version="1.0" encoding="UTF-8"?>
<!DOCTYPE svg PUBLIC "-//W3C//DTD SVG 1.1//EN" "http://www.w3.org/Graphics/SVG/1.1/DTD/svg11.dtd">
<!-- Creator: CorelDRAW X7 -->
<svg xmlns="http://www.w3.org/2000/svg" xml:space="preserve" width="21.7509mm" height="13.085mm" version="1.1" style="shape-rendering:geometricPrecision; text-rendering:geometricPrecision; image-rendering:optimizeQuality; fill-rule:evenodd; clip-rule:evenodd"
viewBox="0 0 1658 997"
 xmlns:xlink="http://www.w3.org/1999/xlink">
 <defs>
  <style type="text/css">
   <![CDATA[
    .str0 {stroke:#ED2F59;stroke-width:5.80857}
    .fil2 {fill:none}
    .fil3 {fill:#FEFEFE}
    .fil0 {fill:#ED2F59}
    .fil6 {fill:#57B952}
    .fil1 {fill:#201E1E}
    .fil5 {fill:#57B952;fill-rule:nonzero}
    .fil4 {fill:#201E1E;fill-rule:nonzero}
   ]]>
  </style>
 </defs>
 <g id="Layer_x0020_1">
  <metadata id="CorelCorpID_0Corel-Layer"/>
  <g id="_411446920">
   <g>
    <path class="fil0" d="M1624 333l-938 0 -5 4 -4 -4 -27 0c-2,1 -3,1 -5,2 -4,2 -9,4 -13,5l-10 3 -1 -2 1 21 -10 2c-6,0 -12,1 -18,1 -5,0 -10,0 -16,-1l-10 -1 0 -20 0 1 -9 -3c-5,-1 -10,-3 -15,-5 -2,-1 -5,-2 -8,-3l-22 0 -6 6 -8 -6 0 0 -28 0c0,4 0,8 0,12 0,8 0,15 -1,22l-1 10 -19 0c0,1 -1,3 -1,4l46 19 -3 9c-2,9 -5,17 -9,26 -3,7 -6,15 -11,22l-4 9 -46 -19c-1,1 -1,1 -2,2l13 14 -6 7c-5,6 -10,12 -15,18 -5,5 -11,10 -16,14l-8 6 -14 -13c-1,1 -2,1 -3,2l19 46 0 0 974 0 -65 -150c-3,-7 0,-15 7,-18l22 -10c8,-3 16,0 19,7l70 160c2,4 2,8 0,11l206 0 0 -210zm-1280 0l-147 0c0,4 0,8 0,12 0,41 33,74 74,74 41,0 74,-33 74,-74 0,-4 0,-8 -1,-12zm-274 0l-12 0 0 60 33 -13c0,-1 0,-2 0,-3l-19 0 -1 -10c-1,-7 -1,-15 -1,-22 0,-4 0,-8 0,-12zm-12 104l0 106 93 0 -1 -1 19 -46c-1,0 -2,-1 -3,-1l-13 13 -8 -6c-6,-5 -11,-10 -16,-15 -6,-5 -11,-11 -16,-17l-6 -7 14 -14c-1,-1 -2,-2 -2,-3l-47 19 -5 -9c-3,-6 -6,-12 -9,-19zm169 106l12 0 0 -18c-2,-1 -3,-1 -4,-1l-8 19zm76 0l11 0 -8 -19c-1,0 -2,1 -3,1l0 18z"/>
    <g>
     <path class="fil1" d="M407 239l13 -13c-4,-5 -9,-11 -14,-15 -5,-6 -11,-11 -16,-15l-14 13c-5,-4 -11,-8 -17,-12l19 -45c-7,-4 -14,-8 -21,-11 -8,-3 -16,-6 -24,-8l-19 45c-7,-2 -14,-3 -22,-4l0 -19c-7,0 -14,-1 -21,-1 -8,0 -15,1 -21,1l0 19c-7,1 -14,2 -21,4l-19 -46c-8,3 -15,5 -23,8 -8,4 -15,7 -23,11l19 46c-6,3 -12,7 -18,12l-13 -13c-5,4 -11,9 -16,14 -5,5 -10,11 -14,16l13 13c-4,6 -8,11 -12,17l-45 -19c-4,7 -8,15 -11,23 -3,7 -6,15 -8,23l45 19c-1,7 -3,14 -4,21l-18 0c-1,7 -2,15 -2,22 0,7 1,14 1,21l19 0c1,7 2,14 4,20l-46 19c3,8 5,16 9,24 3,8 6,15 10,22l46 -19c4,6 8,13 12,18l-13 13c4,6 9,11 14,16 6,6 11,10 16,15l13 -14c6,5 11,9 17,12l-19 46c8,4 15,7 23,11 8,3 15,5 23,8l19 -46c7,2 14,3 22,4l0 19c6,1 13,1 20,1 8,0 15,0 22,-1l0 -19c7,-1 14,-2 21,-3l18 45c8,-2 16,-5 23,-8 8,-3 16,-7 23,-11l-19 -45c7,-4 13,-8 18,-13l14 14c5,-5 10,-9 15,-14 5,-5 10,-11 15,-17l-13 -13c4,-5 8,-11 11,-17l46 19c4,-7 7,-14 10,-21 4,-9 6,-17 9,-25l-46 -19c2,-7 4,-14 5,-21l18 0c1,-7 1,-14 1,-21 0,-7 0,-14 -1,-22l-18 0c-1,-7 -3,-13 -4,-20l45 -19c-2,-7 -5,-15 -8,-22 -3,-9 -7,-16 -11,-24l-45 19c-4,-6 -8,-12 -12,-18zm-136 20c47,0 85,39 85,86 0,47 -38,85 -85,85 -47,0 -85,-38 -85,-85 0,-47 38,-86 85,-86z"/>
     <path class="fil1" d="M698 184l11 -5c-1,-4 -3,-8 -5,-12 -2,-5 -4,-9 -6,-13l-11 5c-2,-4 -5,-8 -7,-11l22 -23c-3,-4 -7,-7 -11,-11 -4,-4 -8,-7 -12,-11l-22 23c-3,-3 -7,-5 -11,-8l4 -11c-4,-2 -8,-4 -12,-5 -5,-2 -9,-3 -13,-5l-4 11c-5,-1 -9,-2 -13,-2l-1 -31c-5,-1 -10,-1 -16,-1 -5,0 -10,0 -15,1l0 31c-4,1 -9,2 -13,3l-5 -11c-4,2 -8,3 -13,5 -4,2 -8,4 -12,6l5 11c-4,2 -7,5 -11,7l-22 -22c-4,4 -8,7 -12,11 -4,4 -7,8 -10,12l22 22c-3,3 -5,7 -7,11l-11 -4c-2,4 -4,8 -6,13 -2,4 -3,8 -4,12l11 5c-1,4 -2,8 -3,12l-31 1c-1,5 -1,10 -1,16 0,5 1,10 1,15l32 0c0,4 1,9 3,13l-11 5c1,4 3,9 4,13 2,4 4,8 6,12l11 -5c2,4 5,8 8,11l-22 22c3,5 7,8 11,12 3,4 7,7 11,11l22 -23c4,3 8,5 12,7l-5 12c4,2 8,3 12,5 5,2 9,3 14,4l4 -11c4,2 8,2 13,3l0 31c5,1 10,1 15,1 6,0 11,-1 17,-1l-1 -31c5,-1 9,-2 14,-3l4 11c4,-2 9,-3 13,-5 4,-2 8,-4 12,-6l-4 -11c3,-2 7,-5 10,-7l23 21c4,-3 7,-6 11,-10 4,-4 7,-8 11,-12l-23 -22c3,-4 6,-7 8,-12l11 5c2,-4 4,-8 5,-12 2,-4 3,-9 5,-13l-11 -5c1,-4 2,-8 2,-13l32 0c0,-5 0,-10 0,-15 0,-6 0,-11 -1,-16l-31 0c-1,-5 -2,-9 -3,-13zm-85 -20c28,11 42,42 30,70 -11,28 -42,41 -70,30 -28,-11 -41,-42 -30,-70 11,-28 42,-41 70,-30z"/>
    </g>
   </g>
   <rect class="fil2 str0" x="3" y="3" width="1652" height="992" rx="124" ry="104"/>
   <path class="fil3" d="M830 483l-18 0 0 -17c-5,13 -14,19 -26,19 -10,0 -18,-4 -24,-13 -6,-9 -8,-20 -8,-33 0,-12 3,-23 8,-32 6,-9 15,-13 25,-13 12,0 19,5 24,15l0 -42 19 0 0 116zm-264 4c3,0 5,1 7,2l143 -117c-1,-2 -2,-4 -2,-6 0,-6 5,-11 12,-11 6,0 11,5 11,11 0,2 0,3 0,4l40 20c-3,1 -5,2 -7,3l-36 -18c-2,2 -5,3 -8,3 -3,0 -5,-1 -6,-2l-144 118c1,1 2,3 2,4 0,7 -6,12 -12,12 -6,0 -11,-5 -11,-12 0,-6 5,-11 11,-11zm269 -68l13 7 0 6 -13 -6 0 -7zm43 22l10 5c-1,2 -2,4 -2,6l-8 -5 0 -6zm38 19l10 5 0 0c-3,0 -6,0 -8,-2 -1,-1 -1,-2 -2,-3zm57 29l27 13c1,-1 3,-1 5,-1 3,0 5,1 7,2l45 -14 10 0 0 -4 6 -2c0,2 -1,4 -1,7l-56 18c1,1 1,3 1,4 0,7 -5,12 -12,12 -6,0 -11,-5 -11,-12 0,-2 0,-4 1,-5l-35 -18 13 0zm175 -30l18 -6c1,2 1,4 2,6l-12 3c-2,-1 -5,-2 -8,-3zm48 -16l28 -9c0,2 1,4 1,6l0 0 -28 9c-1,-2 -1,-4 -1,-6zm58 -18l6 -3c0,0 0,0 0,0 0,-7 5,-12 12,-12 6,0 11,5 11,12l0 0 271 87c2,-3 6,-5 10,-5 6,0 11,5 11,11 0,7 -5,12 -11,12 -7,0 -12,-5 -12,-12 0,0 0,0 0,0l-270 -88c-2,4 -6,6 -10,6 -4,0 -8,-2 -10,-5l-7 2c0,-2 -1,-4 -1,-5zm-309 56l0 0 0 0 0 0zm264 4c-12,0 -22,-4 -29,-14 -6,-9 -10,-19 -10,-31 0,-13 4,-23 11,-32 8,-8 18,-13 30,-13 11,0 21,5 28,13 8,8 11,19 11,32 0,14 -4,25 -11,33 -8,8 -18,12 -30,12zm1 -16c13,0 20,-10 20,-29 0,-9 -2,-16 -5,-21 -3,-5 -8,-8 -14,-8 -7,0 -12,3 -15,8 -4,6 -5,13 -5,21 0,10 2,17 5,22 3,5 8,7 14,7zm-46 -88l0 15 -6 0c-3,0 -5,0 -7,1 -2,0 -4,2 -6,6 7,5 10,11 10,18 0,8 -3,14 -9,19 -7,5 -15,8 -26,8 -4,0 -9,-1 -16,-2 -4,1 -6,4 -6,8 0,2 1,4 3,6 2,2 5,2 9,2l26 0c9,0 15,3 20,7 5,5 8,10 8,17 0,8 -4,15 -11,20 -8,6 -19,8 -34,8 -28,0 -42,-7 -42,-23 0,-8 5,-13 13,-17 -5,-5 -8,-10 -8,-15 0,-7 4,-13 14,-18 -8,-4 -12,-11 -12,-20 0,-7 3,-13 8,-18 6,-5 15,-8 27,-8 6,0 11,1 17,2 2,-11 9,-16 21,-16l7 0zm-44 55c10,0 15,-5 15,-15 0,-4 -1,-7 -4,-9 -2,-3 -6,-4 -11,-4 -5,0 -9,1 -12,4 -3,3 -4,6 -4,10 0,4 1,8 4,10 3,3 7,4 12,4zm-22 43c-3,2 -4,5 -4,7 0,4 2,8 7,11 5,2 12,4 22,4 15,0 23,-4 23,-12 0,-2 -2,-5 -4,-6 -3,-1 -6,-2 -9,-2l-21 0c-4,0 -8,-1 -14,-2zm-36 4l-20 0 0 -53c0,-6 -1,-10 -4,-13 -2,-3 -5,-5 -9,-5 -5,0 -9,3 -13,7 -4,4 -6,11 -6,20l0 44 -19 0 0 -86 17 0 0 20c6,-14 15,-22 26,-22 8,0 14,3 20,8 5,4 8,13 8,25l0 55zm-92 0l-19 0c-1,-5 -2,-11 -3,-17 -5,13 -15,19 -29,19 -9,0 -15,-2 -21,-7 -5,-5 -7,-12 -7,-19 0,-20 17,-30 52,-30 1,0 3,0 5,0l0 -6c0,-9 -6,-14 -18,-14 -12,0 -19,5 -20,14l-17 -3c1,-7 5,-13 11,-18 7,-4 16,-7 29,-7 6,0 12,1 16,2 4,1 8,3 11,6 2,2 4,5 6,8 1,3 1,9 1,16l0 39c0,6 1,11 3,17zm-22 -43c-25,0 -37,6 -37,18 0,3 1,6 3,9 3,2 7,4 12,4 7,0 13,-3 17,-8 3,-4 5,-10 5,-15l0 -8zm-75 -53l-20 0 0 -20 20 0 0 20zm0 10l0 85c0,22 -10,32 -30,32 -3,0 -6,0 -10,-1l0 -16c3,0 5,0 6,0 6,0 9,-1 11,-3 2,-2 3,-6 3,-12l0 -85 20 0zm-62 36c0,-7 -2,-13 -5,-17 -4,-4 -8,-6 -13,-6 -6,0 -11,3 -14,8 -3,5 -5,12 -5,22 0,20 6,29 18,29 5,0 9,-2 13,-6 4,-4 6,-9 6,-16l0 -14z"/>
   <g>
    <path class="fil4" d="M316 746l79 0 -29 -64c-1,-5 -3,-9 -5,-15 -2,-5 -3,-11 -5,-18 -2,7 -3,12 -5,18 -2,5 -4,10 -6,15l-29 64zm128 112l-32 -73 -113 0 -33 73 -48 0 137 -295 138 295 -49 0z"/>
    <path class="fil4" d="M477 801l37 -17c3,13 10,22 19,29 9,6 21,10 36,10 13,0 24,-4 32,-12 9,-7 13,-17 13,-30 0,-17 -14,-32 -42,-45 -4,-2 -7,-3 -9,-4 -31,-15 -52,-29 -62,-41 -11,-13 -16,-28 -16,-46 0,-23 8,-41 24,-56 15,-14 36,-21 61,-21 21,0 39,4 53,12 14,8 24,19 29,35l-36 18c-6,-9 -12,-15 -19,-19 -6,-5 -14,-7 -23,-7 -12,0 -22,4 -30,10 -7,6 -11,15 -11,26 0,17 16,33 49,48 2,1 4,2 5,2 28,13 48,26 58,38 11,13 16,28 16,46 0,27 -9,49 -26,64 -17,16 -39,24 -68,24 -24,0 -44,-5 -60,-16 -15,-12 -25,-27 -30,-48z"/>
    <path class="fil4" d="M731 858l0 -130 -96 -154 49 0 59 96c2,3 3,6 5,10 3,4 5,8 7,13 2,-5 4,-9 6,-13 2,-4 4,-7 6,-11l61 -95 46 0 -98 154 0 130 -45 0z"/>
    <polygon class="fil4" points="56,858 56,574 214,574 214,613 102,613 102,684 214,684 214,725 102,725 102,816 214,816 214,858 "/>
    <path class="fil5" d="M915 766c12,13 23,23 34,29 11,7 22,10 33,10 11,0 19,-3 26,-8 7,-6 10,-13 10,-22 0,-9 -3,-16 -9,-21 -6,-5 -18,-11 -39,-16 -27,-8 -47,-17 -59,-29 -11,-12 -17,-29 -17,-50 0,-27 9,-49 27,-66 18,-17 42,-26 71,-26 16,0 30,2 44,7 14,4 28,10 40,19l-24 55c-9,-7 -18,-13 -27,-17 -9,-3 -18,-5 -27,-5 -10,0 -17,2 -23,6 -6,5 -9,10 -9,17 0,7 3,13 8,17 5,5 15,9 29,13l4 1c31,8 52,17 62,28 7,7 12,15 15,25 4,10 6,20 6,32 0,30 -10,55 -30,73 -20,18 -46,27 -79,27 -20,0 -38,-3 -54,-10 -16,-7 -32,-17 -47,-31l35 -58z"/>
    <polygon class="fil5" points="1120,858 1120,574 1294,574 1294,636 1195,636 1195,686 1288,686 1288,746 1195,746 1195,794 1294,794 1294,858 "/>
    <path class="fil6" d="M1398 716c0,-38 31,-69 69,-69 39,0 70,31 70,69 0,39 -31,70 -70,70 -38,0 -69,-31 -69,-70zm1 -127l-13 -31c-5,1 -11,-1 -13,-6l-70 -160c-2,-6 0,-12 6,-14l22 -10c5,-2 11,0 14,6l70 160c2,5 0,10 -5,13l14 32c14,-5 28,-7 43,-7 80,0 145,65 145,144 0,80 -65,145 -145,145 -79,0 -144,-65 -144,-145 0,-55 31,-103 76,-127z"/>
   </g>
  </g>
 </g>
</svg>
