<?xml version="1.0" encoding="UTF-8"?>
<!DOCTYPE svg PUBLIC "-//W3C//DTD SVG 1.1//EN" "http://www.w3.org/Graphics/SVG/1.1/DTD/svg11.dtd">
<!-- Creator: CorelDRAW X7 -->
<svg xmlns="http://www.w3.org/2000/svg" xml:space="preserve" width="6.1722mm" height="3.7349mm" version="1.1" style="shape-rendering:geometricPrecision; text-rendering:geometricPrecision; image-rendering:optimizeQuality; fill-rule:evenodd; clip-rule:evenodd"
viewBox="0 0 294 178"
 xmlns:xlink="http://www.w3.org/1999/xlink">
 <defs>
  <style type="text/css">
   <![CDATA[
    .str0 {stroke:#201E1E;stroke-width:3.63037}
    .fil0 {fill:#FEFEFE}
    .fil1 {fill:#201E1E}
    .fil2 {fill:#201E1E;fill-rule:nonzero}
   ]]>
  </style>
 </defs>
 <g id="Layer_x0020_1">
  <metadata id="CorelCorpID_0Corel-Layer"/>
  <g id="_667020984">
   <rect class="fil0 str0" x="2" y="2" width="290" height="174" rx="22" ry="18"/>
   <g>
    <path class="fil1" d="M287 60l-165 0 -1 1 -1 -1 -4 0c-1,0 -1,0 -1,0 -1,1 -2,1 -3,1l-1 1 0 -1 0 4 -2 0c-1,0 -2,0 -3,0 -1,0 -2,0 -3,0l-2 0 0 -3 0 0 -1 -1c-1,0 -2,0 -3,-1 0,0 -1,0 -1,0l-4 0 -1 1 -2 -1 0 0 -5 0c0,1 0,1 0,2 0,1 0,3 0,4l0 2 -3 0c0,0 -1,0 -1,0l9 4 -1 1c0,2 -1,3 -2,5 0,1 -1,2 -1,4l-1 1 -8 -3c0,0 -1,0 -1,0l3 3 -1 1c-1,1 -2,2 -3,3 -1,1 -2,2 -3,3l-1 1 -3 -3c0,0 0,1 0,1l3 8 0 0 171 0 -11 -27c-1,-1 0,-2 1,-3l4 -2c1,0 3,0 3,2l13 28c0,0 0,1 0,2l36 0 0 -37zm-225 0l-26 0c0,0 0,1 0,2 0,7 6,13 13,13 7,0 13,-6 13,-13 0,-1 0,-2 0,-2zm-48 0l-2 0 0 10 5 -2c0,0 0,0 0,0l-3 0 0 -2c0,-1 0,-3 0,-4 0,-1 0,-1 0,-2zm-2 18l0 19 16 0 0 0 3 -8c0,-1 0,-1 0,-1l-3 3 -1 -1c-1,-1 -2,-2 -3,-3 -1,-1 -2,-2 -3,-3l-1 -1 3 -3c-1,0 -1,0 -1,0l-8 3 -1 -2c0,-1 -1,-2 -1,-3zm29 19l2 0 0 -3c0,-1 0,-1 0,-1l-2 4zm14 0l1 0 -1 -4c0,0 0,1 0,1l0 3z"/>
    <g>
     <path class="fil1" d="M73 43l2 -2c-1,-1 -1,-2 -2,-3 -1,-1 -2,-1 -3,-2l-3 2c0,-1 -1,-1 -3,-2l4 -8c-1,-1 -3,-1 -4,-2 -1,0 -3,-1 -4,-1l-4 8c-1,-1 -2,-1 -3,-1l0 -3c-2,-1 -3,-1 -4,-1 -1,0 -3,0 -4,1l0 3c-1,0 -2,0 -3,1l-4 -8c-1,0 -2,0 -4,1 -1,1 -3,1 -4,2l4 8c-2,1 -3,1 -4,2l-2 -2c-1,0 -2,1 -3,2 -1,1 -2,2 -2,3l2 2c-1,1 -1,2 -2,3l-8 -3c-1,1 -1,3 -2,4 0,1 -1,3 -1,4l8 3c-1,2 -1,3 -1,4l-3 0c0,1 -1,3 -1,4 0,1 1,2 1,4l3 0c0,1 0,2 1,3l-8 4c0,1 0,2 1,4 1,1 1,2 2,4l8 -4c1,1 1,2 2,3l-2 3c1,1 1,2 2,3 1,0 2,1 3,2l2 -2c1,0 2,1 3,2l-3 8c1,1 3,1 4,2 1,0 3,1 4,1l3 -8c2,0 3,1 4,1l0 3c1,0 3,0 4,0 1,0 2,0 4,0l0 -3c1,0 2,0 3,-1l4 8c1,0 2,-1 4,-1 1,-1 2,-1 4,-2l-4 -8c1,-1 2,-1 3,-2l3 2c1,-1 2,-1 3,-2 0,-1 1,-2 2,-3l-2 -3c1,-1 1,-2 2,-3l8 4c1,-1 1,-3 2,-4 0,-1 1,-3 1,-4l-8 -4c1,-1 1,-2 1,-3l3 0c0,-2 0,-3 0,-4 0,-1 0,-3 0,-4l-3 0c0,-1 0,-2 -1,-3l8 -4c0,-1 -1,-2 -1,-4 -1,-1 -1,-2 -2,-4l-8 3c-1,-1 -1,-2 -2,-3zm-24 4c8,0 15,7 15,15 0,8 -7,15 -15,15 -8,0 -15,-7 -15,-15 0,-8 7,-15 15,-15z"/>
     <path class="fil1" d="M124 34l2 -1c0,-1 -1,-2 -1,-2 0,-1 -1,-2 -1,-3l-2 1c0,0 -1,-1 -1,-2l4 -4c-1,0 -2,-1 -2,-2 -1,0 -2,-1 -2,-2l-4 4c-1,0 -1,0 -2,-1l1 -2c-1,0 -2,-1 -3,-1 0,0 -1,0 -2,-1l-1 2c0,0 -1,0 -2,0l0 -6c-1,0 -2,0 -3,0 -1,0 -2,0 -2,0l0 6c-1,0 -2,0 -3,1l-1 -2c0,0 -1,0 -2,0 -1,1 -1,1 -2,1l1 2c-1,1 -1,1 -2,2l-4 -4c-1,0 -1,1 -2,2 -1,0 -1,1 -2,2l4 4c0,0 -1,1 -1,2l-2 -1c-1,1 -1,1 -1,2 0,1 -1,2 -1,2l2 1c0,1 0,2 0,2l-6 0c0,1 0,2 0,3 0,1 0,2 0,3l6 0c0,1 0,1 0,2l-2 1c1,1 1,2 1,2 0,1 1,2 1,2l2 0c0,0 1,1 1,2l-3 3c0,1 1,2 1,3 1,0 2,1 2,1l4 -4c1,1 2,1 2,2l0 2c0,0 1,0 2,1 0,0 1,0 2,0l1 -2c1,1 1,1 2,1l0 5c1,0 2,1 3,1 1,0 2,-1 3,-1l0 -5c0,0 1,0 2,-1l1 2c0,0 1,0 2,-1 1,0 1,0 2,-1l-1 -2c1,0 2,0 2,-1l4 4c1,-1 1,-1 2,-2 1,-1 1,-1 2,-2l-4 -4c1,0 1,-1 1,-2l2 1c1,-1 1,-1 1,-2 1,-1 1,-2 1,-3l-2 0c0,-1 0,-2 1,-3l5 0c0,-1 0,-1 0,-2 0,-1 0,-2 0,-3l-5 0c-1,-1 -1,-2 -1,-2zm-15 -4c5,2 7,8 5,12 -2,5 -7,8 -12,6 -5,-2 -7,-8 -5,-13 2,-4 7,-7 12,-5z"/>
    </g>
   </g>
   <path class="fil0" d="M147 86l-3 0 0 -3c-1,2 -2,4 -4,4 -2,0 -4,-1 -5,-3 -1,-1 -1,-3 -1,-6 0,-2 0,-4 1,-5 1,-2 3,-2 5,-2 2,0 3,0 4,2l0 -7 3 0 0 20zm-46 1c0,0 1,0 1,0l25 -20c0,-1 0,-1 0,-1 0,-1 1,-2 2,-2 1,0 2,1 2,2 0,0 0,0 0,0l7 4c-1,0 -1,0 -1,0l-7 -3c0,1 -1,1 -1,1 -1,0 -1,0 -1,-1l-25 21c0,0 0,1 0,1 0,1 -1,2 -2,2 -1,0 -2,-1 -2,-2 0,-1 1,-2 2,-2zm47 -12l2 1 0 1 -2 -1 0 -1zm8 4l1 1c0,0 0,0 0,1l-1 -1 0 -1zm6 3l2 1 0 0c0,0 -1,0 -1,0 0,0 -1,-1 -1,-1zm10 5l5 3c0,-1 1,-1 1,-1 0,0 1,0 1,1l8 -3 2 0 0 0 1 -1c0,1 0,1 0,1l-10 4c0,0 0,0 0,0 0,1 -1,2 -2,2 -1,0 -2,-1 -2,-2 0,0 0,0 0,-1l-6 -3 2 0zm31 -5l3 -1c0,0 0,1 1,1l-2 1c-1,-1 -1,-1 -2,-1zm9 -3l5 -1c0,0 0,0 0,1l0 0 -5 1c0,0 0,0 0,-1zm10 -3l1 0c0,0 0,-1 0,-1 0,-1 1,-2 2,-2 1,0 2,1 2,2l0 0 47 16c1,-1 1,-1 2,-1 1,0 2,1 2,2 0,1 -1,2 -2,2 -1,0 -2,-1 -2,-2 0,0 0,0 0,0l-47 -16c-1,1 -1,1 -2,1 -1,0 -1,0 -2,0l-1 0c0,0 0,-1 0,-1zm-55 10l0 0 0 0 0 0zm47 1c-2,0 -4,-1 -5,-3 -1,-1 -2,-3 -2,-5 0,-3 1,-4 2,-6 1,-1 3,-2 5,-2 2,0 4,1 5,2 1,1 2,3 2,6 0,2 -1,4 -2,5 -1,2 -3,3 -5,3zm0 -3c2,0 3,-2 3,-5 0,-2 0,-3 0,-4 -1,-1 -2,-1 -3,-1 -1,0 -2,0 -3,1 0,1 0,2 0,4 0,1 0,3 1,3 0,1 1,2 2,2zm-8 -16l0 3 -1 0c-1,0 -1,0 -1,0 -1,0 -1,0 -1,1 1,1 1,2 1,3 0,2 0,3 -1,4 -1,1 -3,1 -5,1 -1,0 -1,0 -3,0 0,0 -1,0 -1,1 0,0 1,1 1,1 0,0 1,1 1,1l5 0c1,0 3,0 4,1 0,1 1,2 1,3 0,1 -1,2 -2,3 -1,1 -3,2 -6,2 -5,0 -7,-2 -7,-4 0,-2 0,-3 2,-3 -1,-1 -2,-2 -2,-3 0,-1 1,-2 3,-3 -2,-1 -2,-2 -2,-4 0,-1 0,-2 1,-3 1,-1 3,-1 5,-1 1,0 2,0 3,0 0,-2 2,-3 4,-3l1 0zm-8 10c2,0 3,-1 3,-3 0,0 0,-1 -1,-1 0,-1 -1,-1 -2,-1 -1,0 -1,0 -2,1 0,0 -1,1 -1,1 0,1 1,2 1,2 1,1 1,1 2,1zm-4 7c0,1 0,1 0,2 0,0 0,1 1,2 1,0 2,0 4,0 2,0 4,0 4,-2 0,0 -1,-1 -1,-1 0,0 -1,0 -2,0l-3 0c-1,0 -2,0 -3,-1zm-6 1l-3 0 0 -9c0,-1 -1,-2 -1,-2 -1,-1 -1,-1 -2,-1 -1,0 -1,0 -2,1 -1,1 -1,2 -1,3l0 8 -4 0 0 -15 4 0 0 4c1,-3 2,-4 4,-4 1,0 3,0 4,1 0,1 1,2 1,4l0 10zm-16 0l-3 0c-1,-1 -1,-2 -1,-3 -1,2 -3,4 -5,4 -2,0 -3,-1 -4,-2 -1,-1 -1,-2 -1,-3 0,-4 3,-5 9,-5 0,0 1,0 1,0l0 -1c0,-2 -1,-3 -3,-3 -2,0 -3,1 -4,3l-3 -1c0,-1 1,-2 2,-3 1,-1 3,-1 5,-1 1,0 2,0 3,0 1,0 1,1 2,1 0,1 1,1 1,2 0,0 0,1 0,2l0 7c0,1 0,2 1,3zm-4 -7c-4,0 -7,1 -7,3 0,0 1,1 1,1 0,1 1,1 2,1 1,0 2,0 3,-1 1,-1 1,-2 1,-3l0 -1zm-13 -10l-4 0 0 -3 4 0 0 3zm0 2l0 15c0,4 -2,6 -6,6 0,0 -1,0 -1,0l0 -3c0,0 1,0 1,0 1,0 1,0 2,-1 0,0 0,-1 0,-2l0 -15 4 0zm-11 6c0,-1 -1,-2 -1,-3 -1,0 -1,-1 -2,-1 -1,0 -2,1 -3,2 0,1 -1,2 -1,4 0,3 1,5 4,5 0,0 1,-1 2,-1 0,-1 1,-2 1,-3l0 -3z"/>
   <g>
    <path class="fil2" d="M57 132l14 0 -5 -11c-1,-1 -1,-1 -1,-2 -1,-1 -1,-2 -1,-4 0,2 -1,3 -1,4 0,0 -1,1 -1,2l-5 11zm22 20l-5 -13 -20 0 -6 13 -8 0 24 -52 24 52 -9 0z"/>
    <path class="fil2" d="M85 142l7 -3c0,2 1,4 3,5 2,1 4,2 6,2 3,0 5,-1 6,-2 1,-1 2,-3 2,-5 0,-3 -2,-6 -7,-8 -1,-1 -1,-1 -2,-1 -5,-3 -9,-5 -11,-7 -2,-2 -2,-5 -2,-8 0,-4 1,-8 4,-10 2,-3 6,-4 11,-4 3,0 6,1 9,2 2,2 4,4 5,6l-6 4c-1,-2 -2,-3 -4,-4 -1,-1 -2,-1 -4,-1 -2,0 -4,1 -5,2 -1,1 -2,2 -2,4 0,3 3,6 9,9 0,0 0,0 1,0 4,2 8,5 10,7 2,2 2,5 2,8 0,5 -1,8 -4,11 -3,3 -7,4 -12,4 -4,0 -8,-1 -11,-3 -2,-1 -4,-4 -5,-8z"/>
    <path class="fil2" d="M130 152l0 -23 -17 -27 8 0 11 17c0,1 0,1 1,2 0,1 1,1 1,2 0,-1 1,-1 1,-2 0,-1 1,-1 1,-2l11 -17 8 0 -17 27 0 23 -8 0z"/>
    <polygon class="fil2" points="11,152 11,102 39,102 39,109 19,109 19,122 39,122 39,129 19,129 19,145 39,145 39,152 "/>
    <path class="fil2" d="M162 136c2,2 4,4 6,5 2,1 4,2 6,2 2,0 3,-1 4,-2 2,-1 2,-2 2,-3 0,-2 0,-3 -1,-4 -1,-1 -4,-2 -7,-3 -5,-1 -8,-3 -11,-5 -2,-2 -3,-5 -3,-9 0,-5 2,-8 5,-11 3,-3 8,-5 13,-5 2,0 5,0 7,1 3,1 5,2 7,3l-4 10c-1,-1 -3,-2 -5,-3 -1,0 -3,-1 -4,-1 -2,0 -3,1 -4,1 -1,1 -2,2 -2,3 0,2 1,3 1,3 1,1 3,2 6,3l0 0c6,1 9,3 11,5 1,1 2,2 3,4 1,2 1,4 1,6 0,5 -2,9 -5,13 -4,3 -8,4 -14,4 -4,0 -7,0 -10,-1 -3,-2 -5,-3 -8,-6l6 -10z"/>
    <polygon class="fil2" points="198,152 198,102 229,102 229,113 211,113 211,122 228,122 228,132 211,132 211,141 229,141 229,152 "/>
    <path class="fil1" d="M247 127c0,-7 6,-12 12,-12 7,0 12,5 12,12 0,7 -5,12 -12,12 -6,0 -12,-5 -12,-12zm0 -22l-2 -6c-1,1 -2,0 -2,-1l-13 -28c0,-1 0,-2 1,-2l4 -2c1,0 2,0 3,1l12 28c0,1 0,2 -1,2l3 6c2,-1 5,-1 7,-1 14,0 26,11 26,25 0,14 -12,26 -26,26 -14,0 -25,-12 -25,-26 0,-9 5,-18 13,-22z"/>
   </g>
  </g>
 </g>
</svg>
