<?xml version="1.0" encoding="UTF-8"?>
<!DOCTYPE svg PUBLIC "-//W3C//DTD SVG 1.1//EN" "http://www.w3.org/Graphics/SVG/1.1/DTD/svg11.dtd">
<!-- Creator: CorelDRAW X7 -->
<svg xmlns="http://www.w3.org/2000/svg" xml:space="preserve" width="86.7749mm" height="52.1113mm" version="1.1" style="shape-rendering:geometricPrecision; text-rendering:geometricPrecision; image-rendering:optimizeQuality; fill-rule:evenodd; clip-rule:evenodd"
viewBox="0 0 8048 4833"
 xmlns:xlink="http://www.w3.org/1999/xlink">
 <defs>
  <style type="text/css">
   <![CDATA[
    .str0 {stroke:#FEFEFE;stroke-width:7.06754}
    .fil1 {fill:#FEFEFE}
    .fil0 {fill:#201E1E}
    .fil2 {fill:#FEFEFE;fill-rule:nonzero}
   ]]>
  </style>
 </defs>
 <g id="Layer_x0020_1">
  <metadata id="CorelCorpID_0Corel-Layer"/>
  <g id="_408243720">
   <rect class="fil0 str0" x="4" y="4" width="8041" height="4826" rx="603" ry="506"/>
   <g>
    <path class="fil1" d="M7892 1609l-4562 0 -25 21 -22 -21 -131 0c-8,4 -16,7 -24,11 -21,9 -43,17 -65,24l-45 14 -5 -10 2 106 -48 5c-28,4 -56,6 -84,6 -27,0 -53,-1 -80,-3l-47 -5 -2 -96 0 0 -46 -12c-24,-7 -47,-15 -70,-24 -13,-5 -25,-10 -38,-16l-107 0 -31 31 -38 -30 -1 -1 -137 0c1,20 2,41 2,61 0,36 -2,71 -6,106l-5 48 -93 0c-1,6 -2,13 -4,19l224 93 -14 46c-12,42 -26,83 -43,123 -16,38 -34,75 -53,110l-23 42 -225 -94c-2,4 -5,8 -8,12l66 66 -30 37c-24,29 -49,57 -76,84 -25,25 -51,49 -79,71l-37 30 -66 -66c-5,4 -11,8 -16,11l92 225 0 0 4743 0 -319 -730c-15,-34 1,-76 36,-91l107 -47c35,-15 76,1 92,36l340 779c7,17 7,36 1,53l1000 0 0 -1024zm-6227 0l-715 0c-3,19 -4,38 -4,58 0,200 162,362 362,362 200,0 362,-162 362,-362 0,-20 -2,-39 -5,-58zm-1335 0l-56 0 0 295 160 -66c-1,-5 -1,-9 -2,-14l-94 0 -5 -48c-3,-36 -5,-72 -5,-108 0,-20 1,-39 2,-59zm-56 508l0 516 449 0 -6 -3 94 -225c-4,-2 -8,-5 -12,-8l-66 67 -37 -31c-28,-23 -55,-47 -80,-72 -26,-27 -51,-54 -74,-83l-30 -37 65 -66c-3,-5 -7,-10 -11,-16l-226 93 -22 -43c-16,-30 -31,-60 -44,-92zm818 516l59 0 0 -90c-7,-1 -13,-2 -20,-4l-39 94zm373 0l52 0 -38 -93c-5,1 -9,2 -14,3l0 90z"/>
    <g>
     <path class="fil1" d="M1968 1153l65 -64c-21,-26 -43,-51 -67,-75 -26,-26 -53,-50 -81,-72l-63 64c-27,-20 -55,-40 -84,-57l93 -222c-34,-18 -69,-35 -105,-50 -39,-17 -79,-31 -118,-42l-92 221c-34,-9 -69,-15 -104,-20l0 -90c-35,-4 -70,-6 -105,-6 -35,0 -70,2 -103,5l0 91c-34,5 -67,11 -100,19l-91 -222c-38,11 -77,24 -115,40 -38,16 -74,32 -108,51l92 223c-31,18 -60,38 -88,59l-64 -64c-27,22 -53,45 -78,70 -25,25 -48,51 -69,77l64 64c-21,27 -40,55 -57,83l-222 -92c-19,35 -37,72 -53,110 -15,37 -29,75 -40,112l222 93c-9,34 -15,69 -20,104l-90 0c-4,34 -6,69 -6,105 0,35 2,69 5,103l91 0c5,34 11,67 19,99l-222 91c11,39 24,77 40,115 15,38 32,74 51,108l222 -91c18,30 38,60 60,88l-64 64c22,27 45,53 70,78 25,25 50,48 76,69l65 -64c27,20 54,39 83,57l-92 221c35,19 72,37 110,53 37,16 75,29 112,41l93 -222c34,8 68,15 104,19l0 91c33,4 66,6 100,6 37,0 73,-2 108,-6l0 -91c33,-4 67,-10 99,-18l91 222c37,-11 74,-24 110,-39 39,-16 77,-34 113,-53l-91 -222c30,-18 60,-38 88,-59l64 64c26,-21 51,-43 75,-67 25,-26 49,-53 71,-80l-64 -64c21,-27 40,-55 58,-84l221 93c19,-34 36,-69 51,-105 16,-39 30,-79 42,-118l-221 -92c8,-34 15,-69 19,-104l91 0c4,-33 6,-67 6,-101 0,-36 -2,-72 -6,-107l-91 0c-4,-34 -10,-67 -18,-100l222 -91c-11,-37 -24,-73 -39,-110 -16,-39 -34,-77 -53,-113l-222 92c-18,-31 -38,-60 -60,-88zm-660 99c229,0 415,186 415,415 0,229 -186,415 -415,415 -229,0 -415,-186 -415,-415 0,-229 186,-415 415,-415z"/>
     <path class="fil1" d="M3386 882l53 -22c-6,-20 -14,-40 -22,-60 -9,-21 -19,-42 -30,-61l-53 22c-11,-18 -23,-36 -36,-53l107 -109c-16,-19 -33,-37 -51,-54 -19,-19 -39,-36 -59,-52l-106 108c-18,-13 -37,-25 -57,-35l21 -54c-19,-10 -39,-19 -60,-28 -21,-8 -41,-15 -62,-21l-21 54c-21,-6 -42,-10 -63,-12l-2 -153c-25,-2 -51,-3 -77,-3 -26,0 -51,2 -76,5l2 152c-22,4 -44,9 -66,15l-22 -53c-21,7 -42,14 -63,23 -20,9 -40,19 -59,29l23 53c-18,11 -36,23 -53,36l-109 -106c-19,16 -38,33 -57,52 -18,18 -34,37 -50,57l109 106c-13,18 -25,37 -36,57l-53 -21c-10,19 -19,39 -28,60 -8,21 -15,42 -21,62l54 22c-6,20 -10,41 -12,62l-153 2c-2,25 -3,51 -3,77 0,26 2,51 5,76l152 -2c4,22 9,44 15,66l-53 23c7,20 14,41 23,62 9,20 19,40 29,59l53 -23c11,18 23,36 36,53l-106 109c16,19 33,38 52,57 18,17 37,34 57,50l106 -109c18,13 37,25 57,36l-21 53c18,10 38,19 58,27 21,8 43,16 64,22l21 -54c21,6 42,10 63,13l2 152c24,2 49,3 74,3 27,0 53,-2 79,-5l-2 -152c22,-4 44,-9 66,-15l23 53c20,-6 40,-13 59,-22 22,-9 42,-19 61,-30l-22 -53c18,-11 36,-23 53,-36l109 106c19,-15 37,-32 54,-50 19,-19 36,-39 52,-59l-108 -106c13,-18 25,-37 36,-57l53 21c10,-18 19,-37 27,-58 8,-21 16,-43 22,-64l-54 -21c6,-21 10,-42 13,-63l152 -2c2,-24 3,-49 3,-74 0,-27 -2,-53 -5,-79l-152 2c-4,-22 -9,-44 -15,-66zm-412 -96c135,54 201,207 147,342 -53,135 -206,201 -342,147 -135,-53 -201,-206 -147,-342 54,-135 207,-201 342,-147z"/>
    </g>
   </g>
   <path class="fil0" d="M4029 2342l-88 0 0 -85c-25,63 -66,94 -124,94 -52,0 -91,-22 -119,-65 -27,-42 -41,-96 -41,-159 0,-60 15,-111 43,-155 29,-44 69,-66 122,-66 54,0 91,24 112,73l0 -204 95 0 0 567zm-1285 17c13,0 24,4 33,11l695 -571c-4,-8 -6,-17 -6,-27 0,-30 25,-56 56,-56 31,0 56,26 56,56 0,7 -1,12 -3,18l194 98c-12,3 -23,8 -34,14l-175 -88c-10,9 -24,15 -38,15 -11,0 -22,-4 -31,-9l-696 572c3,7 5,15 5,23 0,31 -25,56 -56,56 -31,0 -56,-25 -56,-56 0,-31 25,-56 56,-56zm1310 -328l62 31 0 32 -62 -31 0 -32zm208 104l48 25c-3,8 -6,17 -8,27l-40 -20 0 -32zm187 94l49 25 -3 0c-12,0 -28,-2 -37,-11 -5,-4 -8,-9 -9,-14zm274 139l132 66c8,-5 17,-7 27,-7 13,0 25,4 34,11l216 -70 51 0 0 -17 31 -10c-4,10 -6,20 -6,32l-274 89c3,6 4,13 4,21 0,31 -25,56 -56,56 -31,0 -56,-25 -56,-56 0,-11 3,-20 8,-28l-174 -87 63 0zm854 -145l89 -29c2,9 4,18 7,27l-57 19c-12,-8 -25,-13 -39,-17zm234 -76l137 -45c1,10 1,19 1,28l0 1 -135 44c-2,-9 -3,-19 -3,-28zm280 -92l32 -10c0,-1 0,-2 0,-3 0,-31 25,-56 56,-56 31,0 56,25 56,56l0 0 1317 425c10,-15 27,-25 47,-25 31,0 56,25 56,56 0,31 -25,56 -56,56 -31,0 -56,-25 -56,-56 0,-2 0,-3 0,-4l-1315 -424c-10,16 -28,28 -49,28 -20,0 -37,-11 -47,-26l-35 11c-2,-9 -4,-18 -6,-28zm-1501 277l-3 -1 2 -3 1 4zm1286 19c-62,0 -110,-22 -142,-67 -33,-45 -49,-96 -49,-153 0,-62 18,-114 54,-155 36,-41 84,-62 143,-62 56,0 102,20 138,60 37,40 55,93 55,157 0,66 -19,119 -57,159 -37,41 -85,61 -142,61zm3 -78c64,0 96,-48 96,-143 0,-43 -8,-76 -23,-101 -16,-25 -39,-37 -70,-37 -33,0 -57,12 -73,38 -16,26 -24,60 -24,102 0,46 8,81 25,105 17,24 40,36 69,36zm-225 -430l0 72 -30 0c-12,0 -23,2 -33,5 -10,3 -19,13 -28,29 33,27 50,58 50,91 0,37 -16,68 -47,92 -31,24 -72,36 -124,36 -22,0 -47,-3 -77,-10 -20,9 -29,22 -29,41 0,10 4,20 14,28 9,9 24,13 43,13l124 0c43,0 76,11 101,33 24,22 36,49 36,82 0,40 -18,73 -55,98 -37,27 -91,39 -163,40 -136,-1 -203,-38 -203,-114 0,-37 20,-66 61,-85 -26,-22 -39,-45 -39,-69 0,-37 22,-66 67,-88 -39,-23 -59,-56 -59,-97 0,-35 15,-64 43,-89 29,-25 72,-37 130,-37 27,0 54,3 81,9 13,-54 47,-80 101,-80l36 0zm-216 269c52,0 78,-24 78,-72 0,-19 -7,-34 -20,-47 -13,-13 -31,-19 -56,-19 -25,0 -44,6 -58,20 -14,13 -21,30 -21,50 0,20 7,37 21,49 13,13 32,19 56,19zm-103 207c-14,13 -21,25 -21,37 0,18 11,35 34,50 23,14 59,22 109,22 72,0 109,-19 109,-56 0,-14 -6,-25 -19,-32 -13,-7 -28,-10 -44,-10l-100 0c-20,0 -42,-4 -68,-11zm-177 23l-95 0 0 -262c0,-28 -7,-48 -19,-63 -13,-13 -28,-20 -46,-20 -25,0 -47,10 -65,32 -19,22 -28,54 -28,98l0 215 -95 0 0 -419 87 0 0 97c30,-71 72,-106 127,-106 37,0 68,11 94,35 26,23 40,64 40,122l0 271zm-449 0l-90 0c-8,-25 -13,-54 -14,-85 -25,63 -73,94 -142,94 -42,0 -76,-12 -101,-37 -25,-24 -38,-55 -38,-92 0,-97 85,-145 254,-145 6,0 15,0 27,1l0 -32c0,-44 -30,-65 -89,-65 -58,0 -90,21 -98,65l-81 -12c5,-35 23,-64 54,-86 32,-23 77,-34 137,-34 33,0 59,3 80,8 20,5 37,15 52,27 14,13 23,27 29,42 5,15 8,41 8,77l0 189c0,28 4,56 12,85zm-104 -213c-123,0 -184,29 -184,87 0,18 6,33 19,45 12,12 31,19 55,19 36,0 64,-12 82,-35 18,-23 28,-49 28,-78l0 -38zm-368 -255l-95 0 0 -99 95 0 0 99zm0 49l0 413c0,104 -48,156 -144,157 -15,-1 -31,-2 -49,-5l0 -81c12,2 22,3 30,3 26,0 44,-6 54,-16 9,-9 14,-29 14,-58l0 -413 95 0zm-303 172c0,-34 -8,-61 -24,-80 -16,-19 -37,-28 -63,-28 -28,0 -50,12 -66,36 -15,25 -23,61 -23,109 0,94 29,141 88,141 23,0 44,-10 61,-30 18,-20 27,-46 27,-77l0 -71z"/>
   <g>
    <path class="fil2" d="M1529 3621l385 0 -141 -315c-9,-20 -17,-43 -26,-69 -9,-26 -18,-55 -26,-87 -8,30 -16,58 -24,84 -9,26 -17,51 -26,72l-142 315zm621 543l-157 -356 -547 0 -160 356 -236 0 669 -1435 667 1435 -236 0z"/>
    <path class="fil2" d="M2311 3887l179 -83c17,62 49,109 94,141 45,33 103,49 173,49 67,0 120,-19 160,-56 39,-37 59,-87 59,-149 0,-81 -68,-153 -203,-217 -19,-9 -33,-16 -43,-20 -152,-74 -254,-141 -304,-202 -51,-60 -76,-133 -76,-220 0,-112 38,-203 115,-273 76,-70 176,-105 300,-105 102,0 187,20 256,59 68,39 115,96 142,169l-175 91c-28,-44 -58,-75 -91,-95 -33,-21 -71,-31 -114,-31 -60,0 -109,16 -144,48 -36,31 -53,73 -53,126 0,83 78,160 234,232 12,6 21,10 28,13 137,63 230,125 281,184 51,61 76,136 76,225 0,131 -41,235 -123,312 -83,77 -194,115 -334,115 -118,0 -214,-27 -289,-81 -75,-54 -124,-131 -148,-232z"/>
    <path class="fil2" d="M3546 4164l0 -632 -466 -749 236 0 290 469c7,12 15,27 26,47 10,19 20,41 31,63 9,-22 18,-43 28,-62 10,-20 20,-37 31,-54l296 -463 225 0 -475 749 0 632 -222 0z"/>
    <polygon class="fil2" points="260,4164 260,2783 1030,2783 1030,2974 484,2974 484,3320 1030,3320 1030,3517 484,3517 484,3963 1030,3963 1030,4164 "/>
    <path class="fil2" d="M4443 3718c56,63 111,110 165,142 55,31 109,47 163,47 50,0 91,-14 124,-41 32,-27 48,-61 48,-102 0,-46 -14,-81 -42,-106 -28,-25 -91,-51 -189,-77 -135,-36 -231,-84 -287,-142 -56,-59 -84,-139 -84,-241 0,-132 44,-239 132,-323 89,-83 203,-125 344,-125 76,0 148,11 217,31 68,21 132,51 194,93l-119 270c-42,-36 -86,-63 -131,-82 -45,-19 -89,-28 -133,-28 -45,0 -82,11 -110,33 -29,21 -43,49 -43,83 0,34 12,62 37,83 25,21 73,41 144,59l17 5c153,42 254,87 303,137 32,34 57,74 74,122 17,47 26,100 26,158 0,146 -48,264 -145,353 -96,89 -224,133 -384,133 -97,0 -184,-16 -263,-49 -79,-32 -155,-84 -228,-153l170 -280z"/>
    <polygon class="fil2" points="5441,4164 5441,2783 6287,2783 6287,3086 5808,3086 5808,3326 6259,3326 6259,3621 5808,3621 5808,3855 6287,3855 6287,4164 "/>
    <path class="fil1" d="M6793 3475c0,-186 152,-338 338,-338 187,0 338,152 338,338 0,187 -151,338 -338,338 -186,0 -338,-151 -338,-338zm8 -620l-66 -151c-25,7 -52,-5 -62,-29l-341 -779c-11,-26 1,-56 27,-68l108 -47c26,-11 56,1 67,27l340 779c11,24 1,52 -21,65l67 153c67,-21 138,-32 211,-32 388,0 703,314 703,702 0,388 -315,703 -703,703 -388,0 -702,-315 -702,-703 0,-268 150,-501 372,-620z"/>
   </g>
  </g>
 </g>
</svg>
