<?xml version="1.0" encoding="UTF-8"?>
<!DOCTYPE svg PUBLIC "-//W3C//DTD SVG 1.1//EN" "http://www.w3.org/Graphics/SVG/1.1/DTD/svg11.dtd">
<!-- Creator: CorelDRAW X7 -->
<svg xmlns="http://www.w3.org/2000/svg" xml:space="preserve" width="42.4095mm" height="25.484mm" version="1.1" style="shape-rendering:geometricPrecision; text-rendering:geometricPrecision; image-rendering:optimizeQuality; fill-rule:evenodd; clip-rule:evenodd"
viewBox="0 0 3656 2197"
 xmlns:xlink="http://www.w3.org/1999/xlink">
 <defs>
  <style type="text/css">
   <![CDATA[
    .str0 {stroke:#FEFEFE;stroke-width:6.56929}
    .fil1 {fill:#FEFEFE}
    .fil0 {fill:#201E1E}
    .fil2 {fill:#FEFEFE;fill-rule:nonzero}
   ]]>
  </style>
 </defs>
 <g id="Layer_x0020_1">
  <metadata id="CorelCorpID_0Corel-Layer"/>
  <g id="_410465184">
   <rect class="fil0 str0" x="3" y="3" width="3650" height="2190" rx="274" ry="230"/>
   <g>
    <path class="fil1" d="M3583 732l-2070 0 -11 9 -10 -9 -60 0c-3,2 -7,3 -10,5 -10,4 -20,8 -30,11l-21 6 -2 -4 1 48 -22 2c-12,2 -25,3 -38,3 -12,0 -24,-1 -36,-2l-22 -2 0 -44 0 1 -21 -6c-11,-3 -22,-7 -32,-11 -6,-2 -11,-4 -17,-7l-49 0 -14 14 -17 -14 -1 0 -62 0c1,9 1,19 1,28 0,16 -1,32 -3,48l-2 21 -42 0c-1,3 -1,6 -2,9l102 43 -6 20c-6,19 -13,38 -20,56 -7,17 -15,34 -24,50l-11 19 -102 -42c-1,1 -2,3 -3,5l29 30 -13 16c-11,14 -22,27 -34,39 -12,11 -24,22 -36,32l-17 14 -30 -30c-2,1 -5,3 -7,5l41 101 0 1 2153 0 -145 -331c-7,-16 1,-35 17,-42l48 -21c16,-7 35,0 42,16l154 354c3,7 3,16 1,24l453 0 0 -465zm-2826 0l-324 0c-1,8 -2,17 -2,26 0,91 73,165 164,165 91,0 165,-74 165,-165 0,-9 -1,-18 -3,-26zm-606 0l-25 0 0 134 73 -30c-1,-2 -1,-4 -1,-7l-43 0 -2 -21c-2,-17 -2,-33 -2,-49 0,-9 0,-18 0,-27zm-25 231l0 234 204 0 -3 -2 43 -102c-2,-1 -4,-2 -6,-3l-30 30 -17 -14c-12,-10 -24,-21 -36,-33 -12,-12 -23,-24 -34,-37l-13 -17 30 -30c-2,-2 -4,-5 -5,-7l-103 42 -10 -20c-7,-13 -14,-27 -20,-41zm371 234l27 0 0 -41c-3,-1 -6,-1 -9,-2l-18 43zm170 0l23 0 -17 -42c-2,0 -4,0 -6,1l0 41z"/>
    <g>
     <path class="fil1" d="M895 525l29 -29c-9,-12 -19,-23 -30,-34 -12,-12 -24,-23 -37,-33l-29 29c-12,-9 -24,-18 -38,-26l43 -100c-16,-9 -32,-16 -48,-23 -18,-8 -36,-14 -54,-19l-41 100c-16,-4 -32,-7 -48,-9l0 -41c-15,-2 -31,-2 -47,-2 -16,0 -32,0 -47,2l0 41c-15,2 -30,5 -45,9l-41 -101c-18,5 -35,11 -53,18 -17,7 -33,15 -49,23l42 101c-14,9 -27,18 -40,27l-29 -29c-12,10 -24,21 -36,32 -11,11 -21,23 -31,35l29 29c-9,12 -18,25 -26,38l-100 -42c-9,16 -17,32 -24,50 -7,17 -13,34 -19,51l101 42c-4,15 -7,31 -9,47l-41 0c-2,16 -2,32 -2,48 0,16 0,31 2,46l41 0c2,16 5,31 9,45l-101 42c5,17 11,35 18,52 7,17 15,33 23,49l101 -41c8,13 18,27 27,39l-29 29c10,13 21,25 32,36 11,11 23,22 35,31l29 -29c12,9 25,18 38,26l-42 100c16,9 32,17 50,24 17,8 34,14 51,19l42 -101c15,4 31,7 47,9l0 41c15,2 30,3 46,3 16,0 32,-1 48,-3l0 -41c16,-2 31,-5 45,-8l42 101c17,-5 33,-11 50,-18 18,-7 35,-15 51,-24l-41 -101c13,-8 27,-17 39,-27l30 29c11,-9 23,-19 34,-30 11,-12 22,-24 32,-37l-29 -29c9,-12 18,-24 26,-37l101 42c8,-16 16,-32 23,-48 7,-18 13,-36 18,-54l-100 -41c4,-16 7,-32 9,-48l41 0c2,-15 3,-30 3,-45 0,-17 -1,-33 -3,-49l-41 0c-2,-15 -5,-30 -8,-45l101 -42c-5,-16 -11,-33 -18,-50 -7,-17 -15,-34 -24,-51l-101 42c-8,-14 -17,-27 -27,-40zm-300 45c104,0 189,84 189,188 0,104 -85,189 -189,189 -104,0 -188,-85 -188,-189 0,-104 84,-188 188,-188z"/>
     <path class="fil1" d="M1538 402l25 -10c-3,-9 -7,-18 -11,-27 -4,-10 -8,-19 -13,-28l-24 10c-5,-8 -11,-16 -16,-24l48 -49c-7,-9 -15,-17 -23,-25 -9,-9 -18,-16 -27,-24l-48 50c-8,-6 -17,-12 -26,-17l10 -24c-9,-5 -18,-9 -28,-13 -9,-3 -18,-6 -28,-9l-9 24c-10,-2 -19,-4 -29,-5l-1 -69c-11,-2 -23,-2 -35,-2 -12,0 -23,1 -34,2l1 70c-10,1 -20,3 -30,6l-10 -24c-10,3 -19,7 -29,11 -9,4 -18,8 -26,13l10 24c-8,5 -16,10 -24,16l-49 -48c-9,7 -18,15 -26,24 -8,8 -16,16 -23,25l49 49c-5,8 -11,16 -16,25l-24 -9c-5,9 -9,18 -13,27 -3,10 -7,19 -9,28l24 10c-2,9 -4,19 -6,29l-69 0c-1,12 -1,24 -1,35 0,12 1,23 2,35l69 -1c2,10 4,20 7,30l-24 10c3,10 6,19 11,28 3,10 8,19 13,27l24 -10c5,8 10,16 16,24l-48 49c7,9 15,18 23,26 9,8 17,16 26,23l48 -50c9,6 17,12 26,16l-9 25c8,4 17,8 26,12 10,4 19,7 29,10l10 -24c9,2 19,4 28,5l1 69c11,1 22,2 34,2 12,-1 24,-1 36,-3l-1 -69c10,-1 20,-3 29,-6l11 24c9,-3 18,-6 27,-10 10,-4 19,-9 28,-14l-11 -24c9,-5 17,-10 25,-16l49 48c8,-7 17,-15 25,-23 8,-8 16,-17 23,-27l-49 -48c6,-8 11,-17 16,-26l25 10c4,-8 8,-17 12,-26 4,-10 7,-20 10,-30l-25 -9c3,-10 5,-19 6,-29l69 -1c1,-11 2,-22 1,-33 0,-12 0,-24 -2,-36l-69 1c-1,-10 -4,-20 -7,-30zm-187 -44c62,25 92,94 67,156 -24,61 -94,91 -155,66 -61,-24 -91,-93 -67,-155 25,-61 94,-91 155,-67z"/>
    </g>
   </g>
   <path class="fil0" d="M1830 1065l-40 0 0 -39c-11,29 -30,43 -56,43 -23,0 -41,-10 -54,-30 -12,-19 -18,-43 -18,-72 0,-27 6,-50 19,-70 13,-20 31,-30 55,-30 25,0 42,11 51,33l0 -93 43 0 0 258zm-583 7c6,0 11,2 15,5l316 -259c-2,-3 -3,-8 -3,-12 0,-14 11,-25 25,-25 14,0 25,11 25,25 0,3 0,6 -1,8l88 44c-5,2 -10,4 -15,7l-80 -40c-4,4 -10,7 -17,7 -5,0 -10,-2 -14,-4l-316 259c2,3 3,7 3,11 0,14 -12,25 -26,25 -14,0 -25,-11 -25,-25 0,-14 11,-26 25,-26zm595 -149l28 15 0 14 -28 -14 0 -15zm94 48l22 11c-2,4 -3,8 -4,12l-18 -9 0 -14zm85 42l22 12 -1 0c-6,0 -13,-1 -17,-5 -2,-2 -3,-4 -4,-7zm124 63l60 30c4,-2 8,-3 12,-3 6,0 12,2 16,5l98 -32 23 0 0 -7 14 -5c-2,5 -3,9 -3,15l-124 40c1,3 2,6 2,9 0,14 -11,26 -26,26 -14,0 -25,-12 -25,-26 0,-4 1,-9 3,-12l-78 -40 28 0zm388 -66l40 -13c1,5 2,9 3,13l-26 8c-5,-3 -11,-6 -17,-8zm106 -34l62 -20c1,4 1,8 1,13l0 0 -62 20c0,-4 -1,-9 -1,-13zm127 -41l15 -5c0,-1 0,-1 0,-2 0,-14 11,-25 25,-25 14,0 26,11 26,25l0 1 597 193c5,-8 13,-12 22,-12 14,0 25,11 25,25 0,14 -11,26 -25,26 -14,0 -26,-12 -26,-26 0,0 0,-1 0,-1l-597 -193c-4,8 -13,13 -22,13 -9,0 -17,-5 -21,-12l-16 5c-1,-4 -2,-8 -3,-12zm-681 125l-2 -1 1 -1 1 2zm583 9c-28,0 -49,-10 -64,-31 -15,-20 -22,-43 -22,-69 0,-28 8,-52 24,-71 17,-18 38,-28 65,-28 26,0 47,9 63,28 17,18 25,42 25,71 0,30 -9,54 -26,72 -17,18 -38,28 -65,28zm2 -36c29,0 43,-21 43,-64 0,-20 -3,-35 -10,-47 -7,-11 -18,-16 -32,-16 -15,0 -26,5 -33,17 -7,12 -11,27 -11,46 0,21 4,37 12,48 7,11 18,16 31,16zm-102 -195l0 33 -14 0c-5,0 -10,1 -15,2 -4,1 -8,6 -13,13 16,13 23,26 23,41 0,17 -7,31 -21,42 -14,11 -33,17 -56,17 -10,0 -22,-2 -35,-5 -9,4 -14,10 -14,19 0,4 2,9 7,12 4,4 10,6 19,6l57 0c19,0 34,5 45,15 11,10 17,23 17,38 0,18 -9,32 -25,44 -17,12 -42,18 -74,18 -62,0 -92,-17 -92,-52 0,-16 9,-29 27,-38 -12,-10 -17,-21 -17,-32 0,-16 10,-29 30,-39 -18,-11 -26,-26 -26,-44 0,-16 6,-30 19,-41 13,-11 33,-17 59,-17 12,0 24,2 37,4 6,-24 21,-36 46,-36l16 0zm-98 122c23,0 35,-11 35,-33 0,-8 -3,-15 -9,-21 -6,-6 -14,-9 -25,-9 -12,0 -20,3 -27,10 -6,6 -9,13 -9,22 0,9 3,17 9,23 6,6 15,8 26,8zm-47 94c-6,6 -9,11 -9,17 0,8 5,16 15,23 10,6 27,10 49,10 33,0 50,-9 50,-26 0,-6 -3,-11 -9,-14 -6,-3 -12,-5 -20,-5l-45 0c-9,0 -19,-2 -31,-5zm-81 11l-42 0 0 -119c0,-13 -3,-22 -9,-29 -6,-6 -13,-9 -21,-9 -11,0 -21,5 -30,15 -8,9 -12,24 -12,44l0 98 -43 0 0 -191 39 0 0 44c14,-32 33,-48 58,-48 16,0 31,6 43,16 12,11 17,29 17,56l0 123zm-203 0l-41 0c-4,-12 -6,-25 -6,-39 -12,29 -33,43 -65,43 -19,0 -34,-6 -46,-17 -11,-11 -17,-25 -17,-42 0,-44 39,-66 115,-66 3,0 7,0 13,1l0 -15c0,-19 -14,-29 -41,-29 -26,0 -41,10 -44,29l-37 -5c2,-16 10,-29 25,-39 14,-11 35,-16 62,-16 15,0 27,2 36,4 9,2 17,7 23,12 7,6 11,13 14,20 2,6 3,18 3,34l0 86c0,13 2,26 6,39zm-47 -97c-56,0 -84,13 -84,40 0,7 3,14 9,20 5,5 14,8 25,8 16,0 29,-5 37,-15 8,-11 13,-22 13,-36l0 -17zm-168 -116l-43 0 0 -45 43 0 0 45zm0 22l0 188c0,47 -21,71 -65,71 -7,0 -14,-1 -22,-2l0 -37c5,1 10,1 14,1 12,0 20,-2 24,-7 4,-4 6,-13 6,-26l0 -188 43 0zm-137 78c0,-15 -3,-27 -11,-36 -7,-8 -17,-13 -28,-13 -13,0 -23,6 -30,17 -7,11 -11,28 -11,50 0,42 13,63 40,63 11,0 20,-4 28,-13 8,-10 12,-21 12,-35l0 -33z"/>
   <g>
    <path class="fil2" d="M696 1645l174 0 -64 -143c-4,-9 -7,-19 -11,-31 -4,-12 -8,-25 -12,-40 -4,14 -7,27 -11,39 -4,11 -8,22 -12,32l-64 143zm281 246l-71 -161 -248 0 -73 161 -107 0 304 -651 303 651 -108 0z"/>
    <path class="fil2" d="M1051 1766l81 -38c8,28 22,50 42,64 21,15 47,22 79,22 31,0 54,-8 72,-25 18,-17 27,-39 27,-67 0,-37 -30,-70 -92,-99 -8,-4 -15,-7 -19,-9 -69,-34 -115,-64 -138,-92 -23,-27 -35,-60 -35,-100 0,-51 18,-92 52,-124 35,-31 80,-47 137,-47 46,0 84,9 116,27 31,17 52,43 64,76l-79 41c-13,-19 -27,-34 -42,-43 -15,-9 -32,-14 -51,-14 -28,0 -50,8 -66,22 -16,14 -24,33 -24,57 0,38 36,73 106,105 6,3 10,5 13,6 62,29 105,57 128,84 23,27 34,61 34,102 0,60 -18,107 -56,142 -37,34 -88,52 -151,52 -54,0 -97,-12 -131,-37 -34,-24 -57,-59 -67,-105z"/>
    <path class="fil2" d="M1611 1891l0 -286 -211 -340 107 0 131 212c3,6 7,13 12,22 5,9 9,18 14,29 4,-10 9,-20 13,-29 4,-9 9,-17 14,-24l134 -210 102 0 -215 340 0 286 -101 0z"/>
    <polygon class="fil2" points="120,1891 120,1265 469,1265 469,1352 221,1352 221,1508 469,1508 469,1598 221,1598 221,1800 469,1800 469,1891 "/>
    <path class="fil2" d="M2018 1689c25,29 50,50 75,65 25,14 49,21 74,21 23,0 42,-6 56,-19 15,-12 22,-27 22,-46 0,-21 -6,-37 -19,-48 -13,-11 -41,-23 -86,-35 -61,-17 -105,-38 -130,-65 -26,-26 -38,-63 -38,-109 0,-60 20,-109 60,-146 40,-38 92,-57 156,-57 35,0 67,5 98,14 31,9 61,23 88,42l-53 123c-20,-17 -40,-29 -60,-38 -20,-8 -41,-12 -61,-12 -20,0 -37,5 -49,15 -13,9 -20,22 -20,37 0,16 6,29 17,38 11,9 33,18 65,27l8 2c70,19 115,40 137,62 15,15 26,34 34,55 8,22 12,46 12,72 0,67 -22,120 -66,160 -43,41 -102,61 -174,61 -44,0 -84,-7 -120,-22 -35,-15 -70,-38 -103,-70l77 -127z"/>
    <polygon class="fil2" points="2471,1891 2471,1265 2855,1265 2855,1402 2638,1402 2638,1511 2842,1511 2842,1645 2638,1645 2638,1751 2855,1751 2855,1891 "/>
    <path class="fil1" d="M3085 1579c0,-85 69,-153 153,-153 85,0 154,68 154,153 0,85 -69,153 -154,153 -84,0 -153,-68 -153,-153zm3 -281l-30 -69c-11,3 -23,-2 -28,-13l-154 -354c-5,-11 0,-25 12,-30l49 -22c11,-5 25,1 30,12l155 354c4,11 0,23 -10,29l30 70c31,-10 63,-15 96,-15 176,0 319,143 319,319 0,176 -143,319 -319,319 -176,0 -319,-143 -319,-319 0,-122 69,-228 169,-281z"/>
   </g>
  </g>
 </g>
</svg>
